<svg viewBox="0 0 300 300" xmlns="http://www.w3.org/2000/svg" xmlns:xlink="http://www.w3.org/1999/xlink"><clipPath id="a"><path d="m0 0h300v300h-300z"/></clipPath><g clip-path="url(#a)"><path d="m66.4 274.3c68.4 46.3 161.5 28.4 207.8-40s28.4-161.5-40-207.8c-68.4-46.4-161.5-28.5-207.8 39.9-46.3 68.5-28.4 161.5 40 207.9zm-18.4-157.6c-17.1 52.6-11.4 105.2 11.3 139.7-41.3-39-52-106.1-22.4-164.1 19-37.1 50.7-62.9 85.6-74-31.9 18.4-59.9 53.5-74.5 98.3zm127.3 166.4c36-10.5 68.9-36.8 88.3-74.8 29.4-57.5 19.1-123.9-21.3-163.1 21.8 34.5 27 86.3 10.2 138-15 46.1-44.2 82-77.3 99.8zm8.3-16.9c24.3-20.8 44.4-55.6 53.3-97.4 14.1-66.1-4.4-127.6-41.8-148.1 19.9 26.7 29.9 78.6 23.7 136.7-4.7 44.4-18 83.3-35.2 108.9zm-119.9-134.4c-14.2 66.6 4.7 128.5 42.7 148.6-20.4-26.4-30.8-78.9-24.5-137.7 4.7-43.7 17.6-82 34.3-107.6-24 20.9-43.7 55.4-52.5 96.7zm136.1 17.8c1.1 67.9-20.2 123.3-47.6 123.7s-50.4-54.3-51.5-122.2 20.2-123.3 47.6-123.7 50.4 54.3 51.5 122.2z" fill-rule="evenodd"/></g></svg>