<svg width="85" height="25" viewBox="0 0 85 25" fill="none" xmlns="http://www.w3.org/2000/svg">
<g clip-path="url(#clip0_2951_77696)">
<path d="M33.1152 20.3509V4.45142H39.4523C40.2851 4.45142 41.0423 4.66341 41.7237 5.0874C42.4051 5.49624 42.9426 6.06408 43.3363 6.79091C43.7452 7.51774 43.9496 8.32786 43.9496 9.22126C43.9496 10.1449 43.7452 10.9778 43.3363 11.7197C42.9426 12.4617 42.4051 13.0523 41.7237 13.4914C41.0423 13.9305 40.2851 14.1501 39.4523 14.1501H35.0913V20.3509H33.1152ZM35.0913 12.2194H39.4977C39.952 12.2194 40.3608 12.0907 40.7243 11.8333C41.0877 11.5607 41.3754 11.1973 41.5874 10.7431C41.7994 10.2888 41.9054 9.78152 41.9054 9.22126C41.9054 8.67613 41.7994 8.19158 41.5874 7.76759C41.3754 7.34361 41.0877 7.0029 40.7243 6.74548C40.3608 6.48806 39.952 6.35935 39.4977 6.35935H35.0913V12.2194Z" fill="white"/>
<path d="M51.2679 20.5781C50.102 20.5781 49.0571 20.3131 48.1335 19.7831C47.2249 19.238 46.5057 18.5036 45.9757 17.5799C45.4457 16.6411 45.1807 15.5736 45.1807 14.3773C45.1807 13.1811 45.4457 12.1211 45.9757 11.1974C46.5057 10.2737 47.2249 9.54688 48.1335 9.0169C49.0571 8.48691 50.102 8.22192 51.2679 8.22192C52.4339 8.22192 53.4711 8.48691 54.3797 9.0169C55.3034 9.54688 56.0226 10.2737 56.5375 11.1974C57.0674 12.1211 57.3324 13.1811 57.3324 14.3773C57.3324 15.5736 57.0674 16.6411 56.5375 17.5799C56.0226 18.5036 55.3034 19.238 54.3797 19.7831C53.4711 20.3131 52.4339 20.5781 51.2679 20.5781ZM51.2679 18.8064C52.0705 18.8064 52.7822 18.6172 53.403 18.2386C54.0238 17.8449 54.5084 17.3149 54.8567 16.6487C55.2201 15.9824 55.3942 15.2253 55.3791 14.3773C55.3942 13.5293 55.2201 12.7798 54.8567 12.1287C54.5084 11.4624 54.0238 10.94 53.403 10.5614C52.7822 10.1829 52.0705 9.99358 51.2679 9.99358C50.4654 9.99358 49.7461 10.1829 49.1101 10.5614C48.4893 10.94 48.0047 11.4624 47.6565 12.1287C47.3082 12.7949 47.1341 13.5445 47.1341 14.3773C47.1341 15.2253 47.3082 15.9824 47.6565 16.6487C48.0047 17.3149 48.4893 17.8449 49.1101 18.2386C49.7461 18.6172 50.4654 18.8064 51.2679 18.8064Z" fill="white"/>
<path d="M59.4082 20.351V3.54297H61.3161V20.351H59.4082Z" fill="white"/>
<path d="M68.8428 20.5781C67.8283 20.5781 66.9046 20.3131 66.0718 19.7831C65.2541 19.238 64.603 18.496 64.1184 17.5572C63.6339 16.6184 63.3916 15.5584 63.3916 14.3773C63.3916 13.1811 63.6414 12.1211 64.1411 11.1974C64.6408 10.2737 65.3071 9.54688 66.1399 9.0169C66.9879 8.48691 67.9343 8.22192 68.9791 8.22192C69.5999 8.22192 70.1678 8.31278 70.6826 8.49448C71.2126 8.67619 71.682 8.93361 72.0909 9.26674C72.4997 9.58473 72.8404 9.96329 73.113 10.4024C73.3855 10.8264 73.5672 11.2807 73.6581 11.7653L73.1584 11.5381L73.1811 8.47177H75.089V20.351H73.1811V17.4664L73.6581 17.2165C73.5521 17.6556 73.3477 18.0796 73.0448 18.4885C72.7571 18.8973 72.3937 19.2607 71.9546 19.5787C71.5306 19.8816 71.0536 20.1238 70.5236 20.3055C69.9936 20.4872 69.4334 20.5781 68.8428 20.5781ZM69.2971 18.7837C70.0694 18.7837 70.7508 18.5945 71.3413 18.2159C71.9319 17.8373 72.4013 17.3225 72.7496 16.6714C73.0978 16.0051 73.272 15.2404 73.272 14.3773C73.272 13.5293 73.0978 12.7798 72.7496 12.1287C72.4164 11.4776 71.947 10.9627 71.3413 10.5842C70.7508 10.2056 70.0694 10.0163 69.2971 10.0163C68.5248 10.0163 67.8434 10.2056 67.2529 10.5842C66.6623 10.9627 66.1929 11.4776 65.8446 12.1287C65.5115 12.7798 65.345 13.5293 65.345 14.3773C65.345 15.2253 65.5115 15.9824 65.8446 16.6487C66.1929 17.3149 66.6623 17.8373 67.2529 18.2159C67.8434 18.5945 68.5248 18.7837 69.2971 18.7837Z" fill="white"/>
<path d="M77.541 20.351V8.47177H79.449L79.4944 11.8107L79.29 11.2428C79.4565 10.6826 79.7291 10.1753 80.1077 9.72101C80.4862 9.26674 80.9329 8.90333 81.4478 8.63076C81.9777 8.3582 82.538 8.22192 83.1285 8.22192C83.386 8.22192 83.6283 8.24464 83.8554 8.29006C84.0977 8.32035 84.2945 8.36577 84.4459 8.42634L83.9235 10.5387C83.7267 10.4479 83.5223 10.3797 83.3103 10.3343C83.0983 10.2889 82.9014 10.2662 82.7197 10.2662C82.2352 10.2662 81.7885 10.357 81.3796 10.5387C80.9859 10.7204 80.6452 10.9703 80.3575 11.2883C80.0849 11.5911 79.8654 11.947 79.6988 12.3558C79.5474 12.7647 79.4717 13.2038 79.4717 13.6732V20.351H77.541Z" fill="white"/>
<path fill-rule="evenodd" clip-rule="evenodd" d="M5.4053 22.4314C10.9088 26.1568 18.3903 24.7154 22.1157 19.2119C25.8412 13.7084 24.3998 6.22692 18.8963 2.50149C13.3928 -1.22393 5.91125 0.217476 2.18582 5.72097C-1.53961 11.2244 -0.0981946 18.706 5.4053 22.4314ZM7.00143 22.5297C12.0358 25.1053 18.422 22.6876 21.2656 17.1297C24.1091 11.5717 22.3331 4.97815 17.2987 2.40251C12.2644 -0.173117 5.87812 2.24454 3.0346 7.8025C0.191082 13.3604 1.96709 19.954 7.00143 22.5297Z" fill="white"/>
<path fill-rule="evenodd" clip-rule="evenodd" d="M8.43612 23.8442C12.9805 25.3233 18.3265 21.4159 20.3768 15.1168C22.427 8.81766 20.405 2.51217 15.8606 1.03306C11.3162 -0.446038 5.97023 3.46135 3.92 9.76047C1.86978 16.0596 3.89172 22.3651 8.43612 23.8442ZM9.82626 23.3654C13.6722 24.1858 17.8308 19.9708 19.1148 13.9512C20.3987 7.93149 18.3218 2.3866 14.4758 1.56629C10.6299 0.745979 6.4713 4.96089 5.18735 10.9806C3.90341 17.0002 5.98032 22.5451 9.82626 23.3654Z" fill="white"/>
<path fill-rule="evenodd" clip-rule="evenodd" d="M10.8806 24.3581C13.9213 24.6827 16.9559 19.611 17.6586 13.03C18.3613 6.44905 16.466 0.850911 13.4253 0.526233C10.3847 0.201555 7.35005 5.27329 6.64734 11.8543C5.94464 18.4352 7.83993 24.0334 10.8806 24.3581ZM12.3035 22.355C14.504 22.3203 16.218 17.8655 16.1317 12.4051C16.0455 6.94459 14.1916 2.5462 11.9911 2.58097C9.79052 2.61574 8.07655 7.07049 8.16282 12.531C8.24909 17.9914 10.1029 22.3898 12.3035 22.355Z" fill="white"/>
</g>
<defs>
<clipPath id="clip0_2951_77696">
<rect width="85" height="25" fill="white"/>
</clipPath>
</defs>
</svg>
