<svg width="85" height="25" viewBox="0 0 85 25" fill="none" xmlns="http://www.w3.org/2000/svg">
<path d="M33.1152 20.351V4.45151H39.4523C40.2851 4.45151 41.0423 4.6635 41.7237 5.08749C42.4051 5.49633 42.9426 6.06417 43.3363 6.791C43.7452 7.51783 43.9496 8.32795 43.9496 9.22135C43.9496 10.145 43.7452 10.9779 43.3363 11.7198C42.9426 12.4618 42.4051 13.0524 41.7237 13.4915C41.0423 13.9306 40.2851 14.1502 39.4523 14.1502H35.0913V20.351H33.1152ZM35.0913 12.2195H39.4977C39.952 12.2195 40.3608 12.0908 40.7243 11.8334C41.0877 11.5608 41.3754 11.1974 41.5874 10.7432C41.7994 10.2889 41.9054 9.78161 41.9054 9.22135C41.9054 8.67622 41.7994 8.19167 41.5874 7.76768C41.3754 7.3437 41.0877 7.00299 40.7243 6.74557C40.3608 6.48815 39.952 6.35944 39.4977 6.35944H35.0913V12.2195Z" fill="#0062FF"/>
<path d="M51.2681 20.5781C50.1022 20.5781 49.0573 20.3131 48.1337 19.7831C47.2251 19.238 46.5059 18.5036 45.9759 17.5799C45.4459 16.6411 45.1809 15.5736 45.1809 14.3773C45.1809 13.1811 45.4459 12.1211 45.9759 11.1974C46.5059 10.2737 47.2251 9.54691 48.1337 9.01693C49.0573 8.48694 50.1022 8.22195 51.2681 8.22195C52.4341 8.22195 53.4713 8.48694 54.3799 9.01693C55.3036 9.54691 56.0228 10.2737 56.5377 11.1974C57.0676 12.1211 57.3326 13.1811 57.3326 14.3773C57.3326 15.5736 57.0676 16.6411 56.5377 17.5799C56.0228 18.5036 55.3036 19.238 54.3799 19.7831C53.4713 20.3131 52.4341 20.5781 51.2681 20.5781ZM51.2681 18.8064C52.0707 18.8064 52.7824 18.6172 53.4032 18.2386C54.024 17.8449 54.5086 17.3149 54.8569 16.6487C55.2203 15.9824 55.3944 15.2253 55.3793 14.3773C55.3944 13.5293 55.2203 12.7798 54.8569 12.1287C54.5086 11.4624 54.024 10.94 53.4032 10.5614C52.7824 10.1829 52.0707 9.99361 51.2681 9.99361C50.4656 9.99361 49.7463 10.1829 49.1103 10.5614C48.4895 10.94 48.0049 11.4624 47.6567 12.1287C47.3084 12.7949 47.1343 13.5445 47.1343 14.3773C47.1343 15.2253 47.3084 15.9824 47.6567 16.6487C48.0049 17.3149 48.4895 17.8449 49.1103 18.2386C49.7463 18.6172 50.4656 18.8064 51.2681 18.8064Z" fill="#0062FF"/>
<path d="M59.4081 20.351V3.54297H61.316V20.351H59.4081Z" fill="#0062FF"/>
<path d="M68.8432 20.5781C67.8287 20.5781 66.905 20.3131 66.0722 19.7831C65.2545 19.238 64.6034 18.496 64.1188 17.5572C63.6343 16.6184 63.392 15.5584 63.392 14.3773C63.392 13.1811 63.6418 12.1211 64.1415 11.1974C64.6412 10.2737 65.3075 9.54691 66.1403 9.01693C66.9883 8.48694 67.9347 8.22195 68.9795 8.22195C69.6003 8.22195 70.1682 8.31281 70.683 8.49451C71.213 8.67622 71.6824 8.93364 72.0913 9.26677C72.5001 9.58476 72.8408 9.96332 73.1134 10.4024C73.3859 10.8264 73.5676 11.2807 73.6585 11.7653L73.1588 11.5381L73.1815 8.4718H75.0894V20.351H73.1815V17.4664L73.6585 17.2165C73.5525 17.6556 73.3481 18.0796 73.0452 18.4885C72.7575 18.8973 72.3941 19.2607 71.955 19.5787C71.531 19.8816 71.054 20.1238 70.524 20.3055C69.994 20.4872 69.4338 20.5781 68.8432 20.5781ZM69.2975 18.7837C70.0698 18.7837 70.7512 18.5945 71.3417 18.2159C71.9323 17.8373 72.4017 17.3225 72.75 16.6714C73.0982 16.0051 73.2724 15.2404 73.2724 14.3773C73.2724 13.5293 73.0982 12.7798 72.75 12.1287C72.4168 11.4776 71.9474 10.9627 71.3417 10.5842C70.7512 10.2056 70.0698 10.0163 69.2975 10.0163C68.5252 10.0163 67.8438 10.2056 67.2533 10.5842C66.6627 10.9627 66.1933 11.4776 65.845 12.1287C65.5119 12.7798 65.3454 13.5293 65.3454 14.3773C65.3454 15.2253 65.5119 15.9824 65.845 16.6487C66.1933 17.3149 66.6627 17.8373 67.2533 18.2159C67.8438 18.5945 68.5252 18.7837 69.2975 18.7837Z" fill="#0062FF"/>
<path d="M77.5408 20.351V8.4718H79.4488L79.4942 11.8107L79.2898 11.2428C79.4563 10.6826 79.7289 10.1753 80.1075 9.72104C80.486 9.26677 80.9327 8.90336 81.4476 8.63079C81.9775 8.35823 82.5378 8.22195 83.1283 8.22195C83.3858 8.22195 83.6281 8.24467 83.8552 8.29009C84.0975 8.32038 84.2943 8.3658 84.4457 8.42637L83.9233 10.5387C83.7265 10.4479 83.5221 10.3797 83.3101 10.3343C83.0981 10.2889 82.9012 10.2662 82.7195 10.2662C82.235 10.2662 81.7883 10.357 81.3794 10.5387C80.9857 10.7204 80.645 10.9703 80.3573 11.2883C80.0847 11.5911 79.8652 11.947 79.6986 12.3558C79.5472 12.7647 79.4715 13.2038 79.4715 13.6732V20.351H77.5408Z" fill="#0062FF"/>
<path fill-rule="evenodd" clip-rule="evenodd" d="M5.4053 22.4313C10.9088 26.1567 18.3903 24.7153 22.1157 19.2118C25.8412 13.7083 24.3998 6.2268 18.8963 2.50137C13.3928 -1.22405 5.91125 0.217356 2.18582 5.72085C-1.53961 11.2243 -0.0981962 18.7059 5.4053 22.4313ZM7.00143 22.5296C12.0358 25.1052 18.422 22.6875 21.2656 17.1296C24.1091 11.5716 22.3331 4.97803 17.2987 2.40239C12.2644 -0.173237 5.87812 2.24442 3.0346 7.80238C0.191081 13.3603 1.96709 19.9539 7.00143 22.5296Z" fill="#0062FF"/>
<path fill-rule="evenodd" clip-rule="evenodd" d="M8.43612 23.8443C12.9805 25.3234 18.3265 21.416 20.3768 15.1169C22.427 8.81778 20.405 2.51229 15.8606 1.03318C11.3162 -0.445919 5.97023 3.46147 3.92 9.76059C1.86978 16.0597 3.89172 22.3652 8.43612 23.8443ZM9.82626 23.3655C13.6722 24.1859 17.8308 19.9709 19.1148 13.9513C20.3987 7.93161 18.3218 2.38672 14.4758 1.56641C10.6299 0.746098 6.4713 4.96101 5.18735 10.9807C3.90341 17.0003 5.98032 22.5452 9.82626 23.3655Z" fill="#0062FF"/>
<path fill-rule="evenodd" clip-rule="evenodd" d="M10.8806 24.3582C13.9213 24.6828 16.9559 19.6111 17.6586 13.0301C18.3613 6.44917 16.466 0.851033 13.4253 0.526355C10.3847 0.201677 7.35005 5.27341 6.64734 11.8544C5.94464 18.4353 7.83993 24.0335 10.8806 24.3582ZM12.3035 22.3551C14.504 22.3204 16.218 17.8656 16.1317 12.4052C16.0455 6.94471 14.1916 2.54632 11.9911 2.58109C9.79052 2.61586 8.07655 7.07061 8.16282 12.5311C8.24909 17.9915 10.1029 22.3899 12.3035 22.3551Z" fill="#0062FF"/>
</svg>
