<svg width="634" height="185" viewBox="0 0 634 185" fill="none" xmlns="http://www.w3.org/2000/svg">
<g clip-path="url(#clip0_3455_5477)">
<mask id="path-2-inside-1_3455_5477" fill="white">
<path d="M0 0H655V38H0V0Z"/>
</mask>
<path d="M0 0H655V38H0V0Z" fill="#16171F"/>
<path d="M655 37H0V39H655V37Z" fill="black" fill-opacity="0.08" mask="url(#path-2-inside-1_3455_5477)"/>
<path d="M15.7244 16.4545H17.5398V23.3239C17.5398 23.8295 17.4403 24.2386 17.2415 24.5511C17.0426 24.8636 16.7571 25.0923 16.3849 25.2372C16.0156 25.3821 15.5739 25.4545 15.0597 25.4545C14.9972 25.4545 14.9375 25.4531 14.8807 25.4503C14.821 25.4503 14.7585 25.4489 14.6932 25.446V24.027C14.7415 24.0298 14.7841 24.0312 14.821 24.0312C14.8551 24.0341 14.892 24.0355 14.9318 24.0355C15.2244 24.0355 15.429 23.973 15.5455 23.848C15.6648 23.7259 15.7244 23.5412 15.7244 23.294V16.4545ZM16.6278 15.6108C16.3608 15.6108 16.1307 15.5213 15.9375 15.3423C15.7443 15.1605 15.6477 14.9432 15.6477 14.6903C15.6477 14.4403 15.7443 14.2259 15.9375 14.0469C16.1307 13.8651 16.3608 13.7741 16.6278 13.7741C16.9006 13.7741 17.1321 13.8651 17.3224 14.0469C17.5156 14.2259 17.6122 14.4403 17.6122 14.6903C17.6122 14.9432 17.5156 15.1605 17.3224 15.3423C17.1321 15.5213 16.9006 15.6108 16.6278 15.6108ZM20.8604 23.1236C20.4428 23.1236 20.0707 23.0511 19.744 22.9062C19.4173 22.7585 19.1587 22.5412 18.9684 22.2543C18.7809 21.9645 18.6871 21.6037 18.6871 21.1719C18.6871 20.8082 18.7539 20.5028 18.8874 20.2557C19.021 20.0085 19.2028 19.8097 19.4329 19.6591C19.663 19.5085 19.9244 19.3949 20.217 19.3182C20.5124 19.2415 20.8221 19.1875 21.146 19.1562C21.5266 19.1165 21.8335 19.0795 22.0664 19.0455C22.2994 19.0085 22.4684 18.9545 22.5735 18.8835C22.6786 18.8125 22.7312 18.7074 22.7312 18.5682V18.5426C22.7312 18.2727 22.646 18.0639 22.4755 17.9162C22.3079 17.7685 22.0692 17.6946 21.7596 17.6946C21.4329 17.6946 21.1729 17.767 20.9798 17.9119C20.7866 18.054 20.6587 18.233 20.5962 18.4489L18.9173 18.3125C19.0025 17.9148 19.1701 17.571 19.4201 17.2812C19.6701 16.9886 19.9925 16.7642 20.3874 16.608C20.7852 16.4489 21.2454 16.3693 21.7681 16.3693C22.1317 16.3693 22.4798 16.4119 22.8121 16.4972C23.1474 16.5824 23.4442 16.7145 23.7028 16.8935C23.9641 17.0724 24.1701 17.3026 24.3207 17.5838C24.4712 17.8622 24.5465 18.196 24.5465 18.5852V23H22.8249V22.0923H22.7738C22.6687 22.2969 22.5281 22.4773 22.3519 22.6335C22.1758 22.7869 21.9641 22.9077 21.717 22.9957C21.4698 23.081 21.1843 23.1236 20.8604 23.1236ZM21.3803 21.8707C21.6474 21.8707 21.8832 21.8182 22.0877 21.7131C22.2923 21.6051 22.4528 21.4602 22.5692 21.2784C22.6857 21.0966 22.744 20.8906 22.744 20.6605V19.9659C22.6871 20.0028 22.609 20.0369 22.5096 20.0682C22.413 20.0966 22.3036 20.1236 22.1815 20.1491C22.0593 20.1719 21.9371 20.1932 21.815 20.2131C21.6928 20.2301 21.582 20.2457 21.4826 20.2599C21.2695 20.2912 21.0835 20.3409 20.9244 20.4091C20.7653 20.4773 20.6417 20.5696 20.5536 20.6861C20.4656 20.7997 20.4215 20.9418 20.4215 21.1122C20.4215 21.3594 20.511 21.5483 20.69 21.679C20.8718 21.8068 21.1019 21.8707 21.3803 21.8707ZM27.7702 19.2159V23H25.9549V16.4545H27.685V17.6094H27.7617C27.9066 17.2287 28.1495 16.9276 28.4904 16.706C28.8313 16.4815 29.2447 16.3693 29.7305 16.3693C30.185 16.3693 30.5813 16.4688 30.9194 16.6676C31.2575 16.8665 31.5202 17.1506 31.7077 17.5199C31.8952 17.8864 31.989 18.3239 31.989 18.8324V23H30.1737V19.1562C30.1765 18.7557 30.0742 18.4432 29.8668 18.2188C29.6594 17.9915 29.3739 17.8778 29.0103 17.8778C28.766 17.8778 28.5501 17.9304 28.3626 18.0355C28.1779 18.1406 28.033 18.294 27.9279 18.4957C27.8256 18.6946 27.7731 18.9347 27.7702 19.2159ZM36.4027 23.1278C35.7294 23.1278 35.1499 22.9915 34.6641 22.7188C34.1811 22.4432 33.8089 22.054 33.5476 21.5511C33.2862 21.0455 33.1555 20.4474 33.1555 19.7571C33.1555 19.0838 33.2862 18.4929 33.5476 17.9844C33.8089 17.4759 34.1768 17.0795 34.6513 16.7955C35.1286 16.5114 35.6882 16.3693 36.3303 16.3693C36.7621 16.3693 37.1641 16.4389 37.5362 16.5781C37.9112 16.7145 38.2379 16.9205 38.5163 17.196C38.7976 17.4716 39.0163 17.8182 39.1726 18.2358C39.3288 18.6506 39.407 19.1364 39.407 19.6932V20.1918H33.88V19.0668H37.6982C37.6982 18.8054 37.6413 18.5739 37.5277 18.3722C37.4141 18.1705 37.2564 18.0128 37.0547 17.8991C36.8558 17.7827 36.6243 17.7244 36.3601 17.7244C36.0845 17.7244 35.8402 17.7884 35.6271 17.9162C35.4169 18.0412 35.2521 18.2102 35.1328 18.4233C35.0135 18.6335 34.9524 18.8679 34.9496 19.1264V20.196C34.9496 20.5199 35.0092 20.7997 35.1286 21.0355C35.2507 21.2713 35.4226 21.4531 35.6442 21.581C35.8658 21.7088 36.1286 21.7727 36.4325 21.7727C36.6342 21.7727 36.8189 21.7443 36.9865 21.6875C37.1541 21.6307 37.2976 21.5455 37.4169 21.4318C37.5362 21.3182 37.6271 21.179 37.6896 21.0142L39.3686 21.125C39.2834 21.5284 39.1087 21.8807 38.8445 22.1818C38.5831 22.4801 38.245 22.7131 37.8303 22.8807C37.4183 23.0455 36.9425 23.1278 36.4027 23.1278ZM43.0036 23.1065C42.5064 23.1065 42.0561 22.9787 41.6527 22.723C41.2521 22.4645 40.9339 22.0852 40.6982 21.5852C40.4652 21.0824 40.3487 20.4659 40.3487 19.7358C40.3487 18.9858 40.4695 18.3622 40.7109 17.8651C40.9524 17.3651 41.2734 16.9915 41.674 16.7443C42.0774 16.4943 42.5192 16.3693 42.9993 16.3693C43.3658 16.3693 43.6712 16.4318 43.9155 16.5568C44.1626 16.679 44.3615 16.8324 44.5121 17.017C44.6655 17.1989 44.782 17.3778 44.8615 17.554H44.9169V14.2727H46.728V23H44.9382V21.9517H44.8615C44.7763 22.1335 44.6555 22.3139 44.4993 22.4929C44.3459 22.669 44.1456 22.8153 43.8984 22.9318C43.6541 23.0483 43.3558 23.1065 43.0036 23.1065ZM43.5788 21.6619C43.8714 21.6619 44.1186 21.5824 44.3203 21.4233C44.5249 21.2614 44.6811 21.0355 44.7891 20.7457C44.8999 20.456 44.9553 20.1165 44.9553 19.7273C44.9553 19.3381 44.9013 19 44.7933 18.7131C44.6854 18.4261 44.5291 18.2045 44.3246 18.0483C44.12 17.892 43.8714 17.8139 43.5788 17.8139C43.2805 17.8139 43.0291 17.8949 42.8246 18.0568C42.62 18.2187 42.4652 18.4432 42.3601 18.7301C42.255 19.017 42.2024 19.3494 42.2024 19.7273C42.2024 20.108 42.255 20.4446 42.3601 20.7372C42.468 21.027 42.6229 21.2543 42.8246 21.419C43.0291 21.581 43.2805 21.6619 43.5788 21.6619ZM51.1779 23.1278C50.516 23.1278 49.9435 22.9872 49.4606 22.706C48.9805 22.4219 48.6097 22.027 48.3484 21.5213C48.087 21.0128 47.9563 20.4233 47.9563 19.7528C47.9563 19.0767 48.087 18.4858 48.3484 17.9801C48.6097 17.4716 48.9805 17.0767 49.4606 16.7955C49.9435 16.5114 50.516 16.3693 51.1779 16.3693C51.8398 16.3693 52.4109 16.5114 52.891 16.7955C53.3739 17.0767 53.7461 17.4716 54.0075 17.9801C54.2688 18.4858 54.3995 19.0767 54.3995 19.7528C54.3995 20.4233 54.2688 21.0128 54.0075 21.5213C53.7461 22.027 53.3739 22.4219 52.891 22.706C52.4109 22.9872 51.8398 23.1278 51.1779 23.1278ZM51.1864 21.7216C51.4876 21.7216 51.739 21.6364 51.9407 21.4659C52.1424 21.2926 52.2944 21.0568 52.3967 20.7585C52.5018 20.4602 52.5543 20.1207 52.5543 19.7401C52.5543 19.3594 52.5018 19.0199 52.3967 18.7216C52.2944 18.4233 52.1424 18.1875 51.9407 18.0142C51.739 17.8409 51.4876 17.7543 51.1864 17.7543C50.8825 17.7543 50.6268 17.8409 50.4194 18.0142C50.2148 18.1875 50.06 18.4233 49.9549 18.7216C49.8526 19.0199 49.8015 19.3594 49.8015 19.7401C49.8015 20.1207 49.8526 20.4602 49.9549 20.7585C50.06 21.0568 50.2148 21.2926 50.4194 21.4659C50.6268 21.6364 50.8825 21.7216 51.1864 21.7216ZM58.5629 23.1278C57.8896 23.1278 57.31 22.9915 56.8242 22.7188C56.3413 22.4432 55.9691 22.054 55.7077 21.5511C55.4464 21.0455 55.3157 20.4474 55.3157 19.7571C55.3157 19.0838 55.4464 18.4929 55.7077 17.9844C55.9691 17.4759 56.337 17.0795 56.8114 16.7955C57.2887 16.5114 57.8484 16.3693 58.4904 16.3693C58.9222 16.3693 59.3242 16.4389 59.6964 16.5781C60.0714 16.7145 60.3981 16.9205 60.6765 17.196C60.9577 17.4716 61.1765 17.8182 61.3327 18.2358C61.489 18.6506 61.5671 19.1364 61.5671 19.6932V20.1918H56.0401V19.0668H59.8583C59.8583 18.8054 59.8015 18.5739 59.6879 18.3722C59.5742 18.1705 59.4165 18.0128 59.2148 17.8991C59.016 17.7827 58.7844 17.7244 58.5202 17.7244C58.2447 17.7244 58.0004 17.7884 57.7873 17.9162C57.5771 18.0412 57.4123 18.2102 57.293 18.4233C57.1737 18.6335 57.1126 18.8679 57.1097 19.1264V20.196C57.1097 20.5199 57.1694 20.7997 57.2887 21.0355C57.4109 21.2713 57.5827 21.4531 57.8043 21.581C58.0259 21.7088 58.2887 21.7727 58.5927 21.7727C58.7944 21.7727 58.979 21.7443 59.1467 21.6875C59.3143 21.6307 59.4577 21.5455 59.5771 21.4318C59.6964 21.3182 59.7873 21.179 59.8498 21.0142L61.5288 21.125C61.4435 21.5284 61.2688 21.8807 61.0046 22.1818C60.7433 22.4801 60.4052 22.7131 59.9904 22.8807C59.5785 23.0455 59.1026 23.1278 58.5629 23.1278ZM68.9819 23.1364C68.3683 23.1364 67.8398 22.9915 67.3967 22.7017C66.9535 22.4119 66.6126 22.0128 66.3739 21.5043C66.1353 20.9957 66.016 20.4148 66.016 19.7614C66.016 19.0966 66.1381 18.5099 66.3825 18.0014C66.6296 17.4901 66.9734 17.0909 67.4137 16.804C67.8569 16.5142 68.3739 16.3693 68.9648 16.3693C69.4251 16.3693 69.8398 16.4545 70.2092 16.625C70.5785 16.7955 70.881 17.0341 71.1168 17.3409C71.3526 17.6477 71.4989 18.0057 71.5558 18.4148H70.5501C70.4734 18.1165 70.3029 17.8523 70.0387 17.6222C69.7773 17.3892 69.4251 17.2727 68.9819 17.2727C68.5898 17.2727 68.2461 17.375 67.9506 17.5795C67.658 17.7812 67.4293 18.0668 67.2646 18.4361C67.1026 18.8026 67.0217 19.233 67.0217 19.7273C67.0217 20.233 67.1012 20.6733 67.2603 21.0483C67.4222 21.4233 67.6495 21.7145 67.9421 21.9219C68.2376 22.1293 68.5842 22.233 68.9819 22.233C69.2433 22.233 69.4805 22.1875 69.6935 22.0966C69.9066 22.0057 70.087 21.875 70.2347 21.7045C70.3825 21.5341 70.4876 21.3295 70.5501 21.0909H71.5558C71.4989 21.4773 71.3583 21.8253 71.1339 22.1349C70.9123 22.4418 70.6183 22.6861 70.2518 22.8679C69.8881 23.0469 69.4648 23.1364 68.9819 23.1364ZM75.685 23.1364C75.0941 23.1364 74.5756 22.9957 74.1296 22.7145C73.6864 22.4332 73.3398 22.0398 73.0898 21.5341C72.8427 21.0284 72.7191 20.4375 72.7191 19.7614C72.7191 19.0795 72.8427 18.4844 73.0898 17.9759C73.3398 17.4673 73.6864 17.0724 74.1296 16.7912C74.5756 16.5099 75.0941 16.3693 75.685 16.3693C76.2759 16.3693 76.793 16.5099 77.2362 16.7912C77.6822 17.0724 78.0288 17.4673 78.2759 17.9759C78.5259 18.4844 78.6509 19.0795 78.6509 19.7614C78.6509 20.4375 78.5259 21.0284 78.2759 21.5341C78.0288 22.0398 77.6822 22.4332 77.2362 22.7145C76.793 22.9957 76.2759 23.1364 75.685 23.1364ZM75.685 22.233C76.1339 22.233 76.5032 22.1179 76.793 21.8878C77.0827 21.6577 77.2972 21.3551 77.4364 20.9801C77.5756 20.6051 77.6452 20.1989 77.6452 19.7614C77.6452 19.3239 77.5756 18.9162 77.4364 18.5384C77.2972 18.1605 77.0827 17.8551 76.793 17.6222C76.5032 17.3892 76.1339 17.2727 75.685 17.2727C75.2362 17.2727 74.8668 17.3892 74.5771 17.6222C74.2873 17.8551 74.0728 18.1605 73.9336 18.5384C73.7944 18.9162 73.7248 19.3239 73.7248 19.7614C73.7248 20.1989 73.7944 20.6051 73.9336 20.9801C74.0728 21.3551 74.2873 21.6577 74.5771 21.8878C74.8668 22.1179 75.2362 22.233 75.685 22.233ZM80.1861 23V16.4545H81.1577V17.4773H81.2429C81.3793 17.1278 81.5994 16.8565 81.9034 16.6634C82.2074 16.4673 82.5724 16.3693 82.9986 16.3693C83.4304 16.3693 83.7898 16.4673 84.0767 16.6634C84.3665 16.8565 84.5923 17.1278 84.7543 17.4773H84.8224C84.9901 17.1392 85.2415 16.8707 85.5767 16.6719C85.9119 16.4702 86.3139 16.3693 86.7827 16.3693C87.3679 16.3693 87.8466 16.5526 88.2188 16.919C88.5909 17.2827 88.777 17.8494 88.777 18.6193V23H87.7713V18.6193C87.7713 18.1364 87.6392 17.7912 87.375 17.5838C87.1108 17.3764 86.7997 17.2727 86.4418 17.2727C85.9815 17.2727 85.625 17.4119 85.3722 17.6903C85.1193 17.9659 84.9929 18.3153 84.9929 18.7386V23H83.9702V18.517C83.9702 18.1449 83.8494 17.8452 83.608 17.6179C83.3665 17.3878 83.0554 17.2727 82.6747 17.2727C82.4134 17.2727 82.169 17.3423 81.9418 17.4815C81.7173 17.6207 81.5355 17.8139 81.3963 18.0611C81.2599 18.3054 81.1918 18.5881 81.1918 18.9091V23H80.1861ZM90.6158 23V16.4545H91.5874V17.4773H91.6726C91.8089 17.1278 92.0291 16.8565 92.3331 16.6634C92.6371 16.4673 93.0021 16.3693 93.4283 16.3693C93.8601 16.3693 94.2195 16.4673 94.5064 16.6634C94.7962 16.8565 95.022 17.1278 95.1839 17.4773H95.2521C95.4197 17.1392 95.6712 16.8707 96.0064 16.6719C96.3416 16.4702 96.7436 16.3693 97.2124 16.3693C97.7976 16.3693 98.2763 16.5526 98.6484 16.919C99.0206 17.2827 99.2067 17.8494 99.2067 18.6193V23H98.201V18.6193C98.201 18.1364 98.0689 17.7912 97.8047 17.5838C97.5405 17.3764 97.2294 17.2727 96.8714 17.2727C96.4112 17.2727 96.0547 17.4119 95.8018 17.6903C95.549 17.9659 95.4226 18.3153 95.4226 18.7386V23H94.3999V18.517C94.3999 18.1449 94.2791 17.8452 94.0376 17.6179C93.7962 17.3878 93.4851 17.2727 93.1044 17.2727C92.843 17.2727 92.5987 17.3423 92.3714 17.4815C92.147 17.6207 91.9652 17.8139 91.826 18.0611C91.6896 18.3054 91.6214 18.5881 91.6214 18.9091V23H90.6158ZM103.79 23.1364C103.159 23.1364 102.615 22.9972 102.158 22.7188C101.703 22.4375 101.352 22.0455 101.105 21.5426C100.861 21.0369 100.739 20.4489 100.739 19.7784C100.739 19.108 100.861 18.517 101.105 18.0057C101.352 17.4915 101.696 17.0909 102.136 16.804C102.58 16.5142 103.097 16.3693 103.688 16.3693C104.028 16.3693 104.365 16.4261 104.697 16.5398C105.03 16.6534 105.332 16.8381 105.605 17.0938C105.878 17.3466 106.095 17.6818 106.257 18.0994C106.419 18.517 106.5 19.0312 106.5 19.642V20.0682H101.455V19.1989H105.477C105.477 18.8295 105.403 18.5 105.256 18.2102C105.111 17.9205 104.903 17.6918 104.634 17.5241C104.366 17.3565 104.051 17.2727 103.688 17.2727C103.287 17.2727 102.94 17.3722 102.648 17.571C102.358 17.767 102.135 18.0227 101.979 18.3381C101.822 18.6534 101.744 18.9915 101.744 19.3523V19.9318C101.744 20.4261 101.83 20.8452 102 21.1889C102.173 21.5298 102.413 21.7898 102.72 21.9688C103.027 22.1449 103.384 22.233 103.79 22.233C104.054 22.233 104.293 22.196 104.506 22.1222C104.722 22.0455 104.908 21.9318 105.064 21.7812C105.22 21.6278 105.341 21.4375 105.426 21.2102L106.398 21.483C106.295 21.8125 106.124 22.1023 105.882 22.3523C105.641 22.5994 105.342 22.7926 104.987 22.9318C104.632 23.0682 104.233 23.1364 103.79 23.1364ZM109.036 19.0625V23H108.03V16.4545H109.001V17.4773H109.087C109.24 17.1449 109.473 16.8778 109.786 16.6761C110.098 16.4716 110.501 16.3693 110.996 16.3693C111.439 16.3693 111.827 16.4602 112.159 16.642C112.491 16.821 112.75 17.0938 112.935 17.4602C113.119 17.8239 113.212 18.2841 113.212 18.8409V23H112.206V18.9091C112.206 18.3949 112.072 17.9943 111.805 17.7074C111.538 17.4176 111.172 17.2727 110.706 17.2727C110.385 17.2727 110.098 17.3423 109.845 17.4815C109.595 17.6207 109.398 17.8239 109.253 18.0909C109.108 18.358 109.036 18.6818 109.036 19.0625ZM117.896 16.4545V17.3068H114.504V16.4545H117.896ZM115.493 14.8864H116.498V21.125C116.498 21.4091 116.539 21.6222 116.622 21.7642C116.707 21.9034 116.815 21.9972 116.946 22.0455C117.079 22.0909 117.22 22.1136 117.368 22.1136C117.478 22.1136 117.569 22.108 117.64 22.0966C117.711 22.0824 117.768 22.071 117.811 22.0625L118.015 22.9659C117.947 22.9915 117.852 23.017 117.73 23.0426C117.608 23.071 117.453 23.0852 117.265 23.0852C116.981 23.0852 116.703 23.0241 116.43 22.902C116.16 22.7798 115.936 22.5938 115.757 22.3438C115.581 22.0938 115.493 21.7784 115.493 21.3977V14.8864ZM122.083 23.1364C121.452 23.1364 120.908 22.9972 120.451 22.7188C119.996 22.4375 119.645 22.0455 119.398 21.5426C119.154 21.0369 119.032 20.4489 119.032 19.7784C119.032 19.108 119.154 18.517 119.398 18.0057C119.645 17.4915 119.989 17.0909 120.429 16.804C120.873 16.5142 121.39 16.3693 121.98 16.3693C122.321 16.3693 122.658 16.4261 122.99 16.5398C123.323 16.6534 123.625 16.8381 123.898 17.0938C124.171 17.3466 124.388 17.6818 124.55 18.0994C124.712 18.517 124.793 19.0312 124.793 19.642V20.0682H119.748V19.1989H123.77C123.77 18.8295 123.696 18.5 123.549 18.2102C123.404 17.9205 123.196 17.6918 122.926 17.5241C122.659 17.3565 122.344 17.2727 121.98 17.2727C121.58 17.2727 121.233 17.3722 120.941 17.571C120.651 17.767 120.428 18.0227 120.272 18.3381C120.115 18.6534 120.037 18.9915 120.037 19.3523V19.9318C120.037 20.4261 120.123 20.8452 120.293 21.1889C120.466 21.5298 120.706 21.7898 121.013 21.9688C121.32 22.1449 121.676 22.233 122.083 22.233C122.347 22.233 122.586 22.196 122.799 22.1222C123.015 22.0455 123.201 21.9318 123.357 21.7812C123.513 21.6278 123.634 21.4375 123.719 21.2102L124.691 21.483C124.588 21.8125 124.417 22.1023 124.175 22.3523C123.934 22.5994 123.635 22.7926 123.28 22.9318C122.925 23.0682 122.526 23.1364 122.083 23.1364ZM128.794 23.1364C128.249 23.1364 127.767 22.9986 127.35 22.723C126.932 22.4446 126.605 22.0526 126.37 21.5469C126.134 21.0384 126.016 20.4375 126.016 19.7443C126.016 19.0568 126.134 18.4602 126.37 17.9545C126.605 17.4489 126.934 17.0582 127.354 16.7827C127.775 16.5071 128.26 16.3693 128.811 16.3693C129.238 16.3693 129.574 16.4403 129.821 16.5824C130.071 16.7216 130.262 16.8807 130.392 17.0597C130.526 17.2358 130.63 17.3807 130.703 17.4943H130.789V14.2727H131.794V23H130.823V21.9943H130.703C130.63 22.1136 130.525 22.2642 130.388 22.446C130.252 22.625 130.057 22.7855 129.804 22.9276C129.551 23.0668 129.215 23.1364 128.794 23.1364ZM128.931 22.233C129.334 22.233 129.675 22.1278 129.953 21.9176C130.232 21.7045 130.444 21.4105 130.588 21.0355C130.733 20.6577 130.806 20.2216 130.806 19.7273C130.806 19.2386 130.735 18.8111 130.593 18.4446C130.451 18.0753 130.24 17.7884 129.962 17.5838C129.684 17.3764 129.34 17.2727 128.931 17.2727C128.505 17.2727 128.15 17.3821 127.865 17.6009C127.584 17.8168 127.373 18.1108 127.23 18.483C127.091 18.8523 127.022 19.267 127.022 19.7273C127.022 20.1932 127.093 20.6165 127.235 20.9972C127.38 21.375 127.593 21.6761 127.874 21.9006C128.158 22.1222 128.51 22.233 128.931 22.233ZM137.134 23V22.233L140.015 19.0795C140.353 18.7102 140.631 18.3892 140.85 18.1165C141.069 17.8409 141.23 17.5824 141.336 17.3409C141.444 17.0966 141.498 16.8409 141.498 16.5739C141.498 16.267 141.424 16.0014 141.276 15.777C141.131 15.5526 140.932 15.3793 140.679 15.2571C140.426 15.1349 140.142 15.0739 139.827 15.0739C139.492 15.0739 139.199 15.1435 138.949 15.2827C138.702 15.419 138.51 15.6108 138.374 15.858C138.24 16.1051 138.174 16.3949 138.174 16.7273H137.168C137.168 16.2159 137.286 15.767 137.522 15.3807C137.757 14.9943 138.078 14.6932 138.485 14.4773C138.894 14.2614 139.353 14.1534 139.861 14.1534C140.373 14.1534 140.826 14.2614 141.221 14.4773C141.615 14.6932 141.925 14.9844 142.15 15.3509C142.374 15.7173 142.486 16.125 142.486 16.5739C142.486 16.8949 142.428 17.2088 142.311 17.5156C142.198 17.8196 141.999 18.1591 141.715 18.5341C141.434 18.9062 141.043 19.3608 140.543 19.8977L138.583 21.9943V22.0625H142.64V23H137.134ZM150.263 23.1364C149.718 23.1364 149.236 22.9986 148.819 22.723C148.401 22.4446 148.074 22.0526 147.838 21.5469C147.603 21.0384 147.485 20.4375 147.485 19.7443C147.485 19.0568 147.603 18.4602 147.838 17.9545C148.074 17.4489 148.402 17.0582 148.823 16.7827C149.243 16.5071 149.729 16.3693 150.28 16.3693C150.706 16.3693 151.043 16.4403 151.29 16.5824C151.54 16.7216 151.73 16.8807 151.861 17.0597C151.995 17.2358 152.098 17.3807 152.172 17.4943H152.257V14.2727H153.263V23H152.292V21.9943H152.172C152.098 22.1136 151.993 22.2642 151.857 22.446C151.721 22.625 151.526 22.7855 151.273 22.9276C151.02 23.0668 150.684 23.1364 150.263 23.1364ZM150.4 22.233C150.803 22.233 151.144 22.1278 151.422 21.9176C151.701 21.7045 151.912 21.4105 152.057 21.0355C152.202 20.6577 152.275 20.2216 152.275 19.7273C152.275 19.2386 152.203 18.8111 152.061 18.4446C151.919 18.0753 151.709 17.7884 151.431 17.5838C151.152 17.3764 150.809 17.2727 150.4 17.2727C149.973 17.2727 149.618 17.3821 149.334 17.6009C149.053 17.8168 148.841 18.1108 148.699 18.483C148.56 18.8523 148.49 19.267 148.49 19.7273C148.49 20.1932 148.561 20.6165 148.703 20.9972C148.848 21.375 149.061 21.6761 149.343 21.9006C149.627 22.1222 149.979 22.233 150.4 22.233ZM157.171 23.1534C156.756 23.1534 156.38 23.0753 156.042 22.919C155.703 22.7599 155.435 22.5312 155.236 22.233C155.037 21.9318 154.938 21.5682 154.938 21.142C154.938 20.767 155.012 20.4631 155.159 20.2301C155.307 19.9943 155.505 19.8097 155.752 19.6761C155.999 19.5426 156.272 19.4432 156.57 19.3778C156.871 19.3097 157.174 19.2557 157.478 19.2159C157.875 19.1648 158.198 19.1264 158.445 19.1009C158.695 19.0724 158.877 19.0256 158.99 18.9602C159.107 18.8949 159.165 18.7812 159.165 18.6193V18.5852C159.165 18.1648 159.05 17.8381 158.82 17.6051C158.593 17.3722 158.248 17.2557 157.784 17.2557C157.304 17.2557 156.928 17.3608 156.655 17.571C156.382 17.7812 156.191 18.0057 156.08 18.2443L155.125 17.9034C155.296 17.5057 155.523 17.196 155.807 16.9744C156.094 16.75 156.407 16.5937 156.745 16.5057C157.086 16.4148 157.421 16.3693 157.75 16.3693C157.961 16.3693 158.202 16.3949 158.475 16.446C158.75 16.4943 159.016 16.5952 159.272 16.7486C159.53 16.902 159.745 17.1335 159.915 17.4432C160.086 17.7528 160.171 18.1676 160.171 18.6875V23H159.165V22.1136H159.114C159.046 22.2557 158.932 22.4077 158.773 22.5696C158.614 22.7315 158.402 22.8693 158.138 22.983C157.874 23.0966 157.551 23.1534 157.171 23.1534ZM157.324 22.25C157.722 22.25 158.057 22.1719 158.33 22.0156C158.605 21.8594 158.813 21.6577 158.952 21.4105C159.094 21.1634 159.165 20.9034 159.165 20.6307V19.7102C159.123 19.7614 159.029 19.8082 158.884 19.8509C158.742 19.8906 158.577 19.9261 158.39 19.9574C158.205 19.9858 158.025 20.0114 157.848 20.0341C157.675 20.054 157.534 20.071 157.426 20.0852C157.165 20.1193 156.921 20.1747 156.694 20.2514C156.469 20.3253 156.287 20.4375 156.148 20.5881C156.012 20.7358 155.944 20.9375 155.944 21.1932C155.944 21.5426 156.073 21.8068 156.331 21.9858C156.593 22.1619 156.924 22.25 157.324 22.25ZM162.42 25.4545C162.249 25.4545 162.097 25.4403 161.964 25.4119C161.83 25.3864 161.738 25.3608 161.687 25.3352L161.942 24.4489C162.187 24.5114 162.403 24.5341 162.59 24.517C162.778 24.5 162.944 24.4162 163.089 24.2656C163.237 24.1179 163.371 23.8778 163.494 23.5455L163.681 23.0341L161.261 16.4545H162.352L164.158 21.6705H164.227L166.033 16.4545H167.124L164.346 23.9545C164.221 24.2926 164.066 24.5724 163.881 24.794C163.697 25.0185 163.482 25.1847 163.238 25.2926C162.996 25.4006 162.724 25.4545 162.42 25.4545ZM173.088 17.9205L172.185 18.1761C172.128 18.0256 172.044 17.8793 171.933 17.7372C171.825 17.5923 171.678 17.473 171.49 17.3793C171.303 17.2855 171.062 17.2386 170.77 17.2386C170.369 17.2386 170.036 17.331 169.768 17.5156C169.504 17.6974 169.372 17.929 169.372 18.2102C169.372 18.4602 169.463 18.6577 169.645 18.8026C169.827 18.9474 170.111 19.0682 170.497 19.1648L171.469 19.4034C172.054 19.5455 172.49 19.7628 172.777 20.0554C173.064 20.3452 173.207 20.7187 173.207 21.1761C173.207 21.5511 173.099 21.8864 172.884 22.1818C172.67 22.4773 172.372 22.7102 171.989 22.8807C171.605 23.0511 171.159 23.1364 170.651 23.1364C169.983 23.1364 169.43 22.9915 168.993 22.7017C168.555 22.4119 168.278 21.9886 168.162 21.4318L169.116 21.1932C169.207 21.5455 169.379 21.8097 169.632 21.9858C169.888 22.1619 170.222 22.25 170.634 22.25C171.102 22.25 171.474 22.1506 171.75 21.9517C172.028 21.75 172.168 21.5085 172.168 21.2273C172.168 21 172.088 20.8097 171.929 20.6562C171.77 20.5 171.526 20.3835 171.196 20.3068L170.105 20.0511C169.506 19.9091 169.065 19.6889 168.784 19.3906C168.506 19.0895 168.366 18.7131 168.366 18.2614C168.366 17.892 168.47 17.5653 168.678 17.2812C168.888 16.9972 169.173 16.7741 169.534 16.6122C169.898 16.4503 170.31 16.3693 170.77 16.3693C171.418 16.3693 171.926 16.5114 172.295 16.7955C172.668 17.0795 172.932 17.4545 173.088 17.9205ZM180.022 23.1534C179.608 23.1534 179.231 23.0753 178.893 22.919C178.555 22.7599 178.287 22.5312 178.088 22.233C177.889 21.9318 177.789 21.5682 177.789 21.142C177.789 20.767 177.863 20.4631 178.011 20.2301C178.159 19.9943 178.356 19.8097 178.603 19.6761C178.85 19.5426 179.123 19.4432 179.422 19.3778C179.723 19.3097 180.025 19.2557 180.329 19.2159C180.727 19.1648 181.049 19.1264 181.297 19.1009C181.547 19.0724 181.728 19.0256 181.842 18.9602C181.958 18.8949 182.017 18.7812 182.017 18.6193V18.5852C182.017 18.1648 181.902 17.8381 181.672 17.6051C181.444 17.3722 181.099 17.2557 180.636 17.2557C180.156 17.2557 179.779 17.3608 179.507 17.571C179.234 17.7812 179.042 18.0057 178.931 18.2443L177.977 17.9034C178.147 17.5057 178.375 17.196 178.659 16.9744C178.946 16.75 179.258 16.5937 179.596 16.5057C179.937 16.4148 180.272 16.3693 180.602 16.3693C180.812 16.3693 181.054 16.3949 181.326 16.446C181.602 16.4943 181.868 16.5952 182.123 16.7486C182.382 16.902 182.596 17.1335 182.767 17.4432C182.937 17.7528 183.022 18.1676 183.022 18.6875V23H182.017V22.1136H181.966C181.897 22.2557 181.784 22.4077 181.625 22.5696C181.466 22.7315 181.254 22.8693 180.99 22.983C180.725 23.0966 180.403 23.1534 180.022 23.1534ZM180.176 22.25C180.574 22.25 180.909 22.1719 181.181 22.0156C181.457 21.8594 181.664 21.6577 181.804 21.4105C181.946 21.1634 182.017 20.9034 182.017 20.6307V19.7102C181.974 19.7614 181.88 19.8082 181.735 19.8509C181.593 19.8906 181.429 19.9261 181.241 19.9574C181.056 19.9858 180.876 20.0114 180.7 20.0341C180.527 20.054 180.386 20.071 180.278 20.0852C180.017 20.1193 179.772 20.1747 179.545 20.2514C179.321 20.3253 179.139 20.4375 179 20.5881C178.863 20.7358 178.795 20.9375 178.795 21.1932C178.795 21.5426 178.924 21.8068 179.183 21.9858C179.444 22.1619 179.775 22.25 180.176 22.25ZM187.5 25.5909C187.014 25.5909 186.597 25.5284 186.247 25.4034C185.898 25.2812 185.607 25.1193 185.374 24.9176C185.143 24.7188 184.96 24.5057 184.824 24.2784L185.625 23.7159C185.716 23.8352 185.831 23.9716 185.97 24.125C186.109 24.2812 186.3 24.4162 186.541 24.5298C186.786 24.6463 187.105 24.7045 187.5 24.7045C188.028 24.7045 188.464 24.5767 188.808 24.321C189.152 24.0653 189.324 23.6648 189.324 23.1193V21.7898H189.239C189.165 21.9091 189.06 22.0568 188.923 22.233C188.79 22.4062 188.597 22.5611 188.344 22.6974C188.094 22.831 187.756 22.8977 187.33 22.8977C186.801 22.8977 186.327 22.7727 185.906 22.5227C185.489 22.2727 185.158 21.9091 184.913 21.4318C184.672 20.9545 184.551 20.375 184.551 19.6932C184.551 19.0227 184.669 18.4389 184.905 17.9418C185.141 17.4418 185.469 17.0554 185.889 16.7827C186.31 16.5071 186.795 16.3693 187.347 16.3693C187.773 16.3693 188.111 16.4403 188.361 16.5824C188.614 16.7216 188.807 16.8807 188.94 17.0597C189.077 17.2358 189.182 17.3807 189.256 17.4943H189.358V16.4545H190.33V23.1875C190.33 23.75 190.202 24.2074 189.946 24.5597C189.693 24.9148 189.352 25.1747 188.923 25.3395C188.497 25.5071 188.023 25.5909 187.5 25.5909ZM187.466 21.9943C187.869 21.9943 188.21 21.902 188.489 21.7173C188.767 21.5327 188.979 21.267 189.124 20.9205C189.268 20.5739 189.341 20.1591 189.341 19.6761C189.341 19.2045 189.27 18.7884 189.128 18.4276C188.986 18.0668 188.776 17.7841 188.497 17.5795C188.219 17.375 187.875 17.2727 187.466 17.2727C187.04 17.2727 186.685 17.3807 186.401 17.5966C186.119 17.8125 185.908 18.1023 185.766 18.4659C185.626 18.8295 185.557 19.233 185.557 19.6761C185.557 20.1307 185.628 20.5327 185.77 20.8821C185.915 21.2287 186.128 21.5014 186.409 21.7003C186.693 21.8963 187.045 21.9943 187.466 21.9943ZM194.83 23.1364C194.239 23.1364 193.72 22.9957 193.274 22.7145C192.831 22.4332 192.484 22.0398 192.234 21.5341C191.987 21.0284 191.864 20.4375 191.864 19.7614C191.864 19.0795 191.987 18.4844 192.234 17.9759C192.484 17.4673 192.831 17.0724 193.274 16.7912C193.72 16.5099 194.239 16.3693 194.83 16.3693C195.42 16.3693 195.938 16.5099 196.381 16.7912C196.827 17.0724 197.173 17.4673 197.42 17.9759C197.67 18.4844 197.795 19.0795 197.795 19.7614C197.795 20.4375 197.67 21.0284 197.42 21.5341C197.173 22.0398 196.827 22.4332 196.381 22.7145C195.938 22.9957 195.42 23.1364 194.83 23.1364ZM194.83 22.233C195.278 22.233 195.648 22.1179 195.938 21.8878C196.227 21.6577 196.442 21.3551 196.581 20.9801C196.72 20.6051 196.79 20.1989 196.79 19.7614C196.79 19.3239 196.72 18.9162 196.581 18.5384C196.442 18.1605 196.227 17.8551 195.938 17.6222C195.648 17.3892 195.278 17.2727 194.83 17.2727C194.381 17.2727 194.011 17.3892 193.722 17.6222C193.432 17.8551 193.217 18.1605 193.078 18.5384C192.939 18.9162 192.869 19.3239 192.869 19.7614C192.869 20.1989 192.939 20.6051 193.078 20.9801C193.217 21.3551 193.432 21.6577 193.722 21.8878C194.011 22.1179 194.381 22.233 194.83 22.233ZM206.456 18.7898V19.7273H202.637V18.7898H206.456ZM214.344 23.1364C213.714 23.1364 213.17 22.9972 212.712 22.7188C212.258 22.4375 211.907 22.0455 211.66 21.5426C211.415 21.0369 211.293 20.4489 211.293 19.7784C211.293 19.108 211.415 18.517 211.66 18.0057C211.907 17.4915 212.251 17.0909 212.691 16.804C213.134 16.5142 213.651 16.3693 214.242 16.3693C214.583 16.3693 214.92 16.4261 215.252 16.5398C215.585 16.6534 215.887 16.8381 216.16 17.0938C216.433 17.3466 216.65 17.6818 216.812 18.0994C216.974 18.517 217.055 19.0312 217.055 19.642V20.0682H212.009V19.1989H216.032C216.032 18.8295 215.958 18.5 215.81 18.2102C215.665 17.9205 215.458 17.6918 215.188 17.5241C214.921 17.3565 214.606 17.2727 214.242 17.2727C213.842 17.2727 213.495 17.3722 213.202 17.571C212.913 17.767 212.69 18.0227 212.533 18.3381C212.377 18.6534 212.299 18.9915 212.299 19.3523V19.9318C212.299 20.4261 212.384 20.8452 212.555 21.1889C212.728 21.5298 212.968 21.7898 213.275 21.9688C213.582 22.1449 213.938 22.233 214.344 22.233C214.609 22.233 214.847 22.196 215.06 22.1222C215.276 22.0455 215.462 21.9318 215.619 21.7812C215.775 21.6278 215.896 21.4375 215.981 21.2102L216.952 21.483C216.85 21.8125 216.678 22.1023 216.437 22.3523C216.195 22.5994 215.897 22.7926 215.542 22.9318C215.187 23.0682 214.788 23.1364 214.344 23.1364ZM221.056 23.1364C220.511 23.1364 220.029 22.9986 219.612 22.723C219.194 22.4446 218.867 22.0526 218.631 21.5469C218.396 21.0384 218.278 20.4375 218.278 19.7443C218.278 19.0568 218.396 18.4602 218.631 17.9545C218.867 17.4489 219.195 17.0582 219.616 16.7827C220.036 16.5071 220.522 16.3693 221.073 16.3693C221.499 16.3693 221.836 16.4403 222.083 16.5824C222.333 16.7216 222.523 16.8807 222.654 17.0597C222.788 17.2358 222.891 17.3807 222.965 17.4943H223.05V14.2727H224.056V23H223.085V21.9943H222.965C222.891 22.1136 222.786 22.2642 222.65 22.446C222.513 22.625 222.319 22.7855 222.066 22.9276C221.813 23.0668 221.477 23.1364 221.056 23.1364ZM221.192 22.233C221.596 22.233 221.937 22.1278 222.215 21.9176C222.494 21.7045 222.705 21.4105 222.85 21.0355C222.995 20.6577 223.067 20.2216 223.067 19.7273C223.067 19.2386 222.996 18.8111 222.854 18.4446C222.712 18.0753 222.502 17.7884 222.224 17.5838C221.945 17.3764 221.602 17.2727 221.192 17.2727C220.766 17.2727 220.411 17.3821 220.127 17.6009C219.846 17.8168 219.634 18.1108 219.492 18.483C219.353 18.8523 219.283 19.267 219.283 19.7273C219.283 20.1932 219.354 20.6165 219.496 20.9972C219.641 21.375 219.854 21.6761 220.136 21.9006C220.42 22.1222 220.772 22.233 221.192 22.233ZM226.038 23V16.4545H227.043V23H226.038ZM226.549 15.3636C226.353 15.3636 226.184 15.2969 226.042 15.1634C225.903 15.0298 225.833 14.8693 225.833 14.6818C225.833 14.4943 225.903 14.3338 226.042 14.2003C226.184 14.0668 226.353 14 226.549 14C226.745 14 226.913 14.0668 227.052 14.2003C227.194 14.3338 227.265 14.4943 227.265 14.6818C227.265 14.8693 227.194 15.0298 227.052 15.1634C226.913 15.2969 226.745 15.3636 226.549 15.3636ZM231.732 16.4545V17.3068H228.34V16.4545H231.732ZM229.328 14.8864H230.334V21.125C230.334 21.4091 230.375 21.6222 230.458 21.7642C230.543 21.9034 230.651 21.9972 230.782 22.0455C230.915 22.0909 231.056 22.1136 231.203 22.1136C231.314 22.1136 231.405 22.108 231.476 22.0966C231.547 22.0824 231.604 22.071 231.647 22.0625L231.851 22.9659C231.783 22.9915 231.688 23.017 231.566 23.0426C231.444 23.071 231.289 23.0852 231.101 23.0852C230.817 23.0852 230.539 23.0241 230.266 22.902C229.996 22.7798 229.772 22.5938 229.593 22.3438C229.417 22.0938 229.328 21.7784 229.328 21.3977V14.8864ZM235.919 23.1364C235.288 23.1364 234.744 22.9972 234.287 22.7188C233.832 22.4375 233.481 22.0455 233.234 21.5426C232.99 21.0369 232.868 20.4489 232.868 19.7784C232.868 19.108 232.99 18.517 233.234 18.0057C233.481 17.4915 233.825 17.0909 234.265 16.804C234.708 16.5142 235.225 16.3693 235.816 16.3693C236.157 16.3693 236.494 16.4261 236.826 16.5398C237.159 16.6534 237.461 16.8381 237.734 17.0938C238.007 17.3466 238.224 17.6818 238.386 18.0994C238.548 18.517 238.629 19.0312 238.629 19.642V20.0682H233.583V19.1989H237.606C237.606 18.8295 237.532 18.5 237.385 18.2102C237.24 17.9205 237.032 17.6918 236.762 17.5241C236.495 17.3565 236.18 17.2727 235.816 17.2727C235.416 17.2727 235.069 17.3722 234.777 17.571C234.487 17.767 234.264 18.0227 234.108 18.3381C233.951 18.6534 233.873 18.9915 233.873 19.3523V19.9318C233.873 20.4261 233.958 20.8452 234.129 21.1889C234.302 21.5298 234.542 21.7898 234.849 21.9688C235.156 22.1449 235.512 22.233 235.919 22.233C236.183 22.233 236.422 22.196 236.635 22.1222C236.85 22.0455 237.037 21.9318 237.193 21.7812C237.349 21.6278 237.47 21.4375 237.555 21.2102L238.527 21.483C238.424 21.8125 238.252 22.1023 238.011 22.3523C237.77 22.5994 237.471 22.7926 237.116 22.9318C236.761 23.0682 236.362 23.1364 235.919 23.1364ZM242.63 23.1364C242.085 23.1364 241.603 22.9986 241.186 22.723C240.768 22.4446 240.441 22.0526 240.206 21.5469C239.97 21.0384 239.852 20.4375 239.852 19.7443C239.852 19.0568 239.97 18.4602 240.206 17.9545C240.441 17.4489 240.77 17.0582 241.19 16.7827C241.61 16.5071 242.096 16.3693 242.647 16.3693C243.074 16.3693 243.41 16.4403 243.657 16.5824C243.907 16.7216 244.098 16.8807 244.228 17.0597C244.362 17.2358 244.466 17.3807 244.539 17.4943H244.625V14.2727H245.63V23H244.659V21.9943H244.539C244.466 22.1136 244.36 22.2642 244.224 22.446C244.088 22.625 243.893 22.7855 243.64 22.9276C243.387 23.0668 243.051 23.1364 242.63 23.1364ZM242.767 22.233C243.17 22.233 243.511 22.1278 243.789 21.9176C244.068 21.7045 244.279 21.4105 244.424 21.0355C244.569 20.6577 244.642 20.2216 244.642 19.7273C244.642 19.2386 244.571 18.8111 244.429 18.4446C244.287 18.0753 244.076 17.7884 243.798 17.5838C243.52 17.3764 243.176 17.2727 242.767 17.2727C242.341 17.2727 241.985 17.3821 241.701 17.6009C241.42 17.8168 241.208 18.1108 241.066 18.483C240.927 18.8523 240.858 19.267 240.858 19.7273C240.858 20.1932 240.929 20.6165 241.071 20.9972C241.216 21.375 241.429 21.6761 241.71 21.9006C241.994 22.1222 242.346 22.233 242.767 22.233ZM251.123 23V14.2727H252.129V17.4943H252.214C252.288 17.3807 252.39 17.2358 252.521 17.0597C252.654 16.8807 252.845 16.7216 253.092 16.5824C253.342 16.4403 253.68 16.3693 254.106 16.3693C254.657 16.3693 255.143 16.5071 255.564 16.7827C255.984 17.0582 256.312 17.4489 256.548 17.9545C256.784 18.4602 256.902 19.0568 256.902 19.7443C256.902 20.4375 256.784 21.0384 256.548 21.5469C256.312 22.0526 255.985 22.4446 255.568 22.723C255.15 22.9986 254.669 23.1364 254.123 23.1364C253.703 23.1364 253.366 23.0668 253.113 22.9276C252.86 22.7855 252.666 22.625 252.529 22.446C252.393 22.2642 252.288 22.1136 252.214 21.9943H252.095V23H251.123ZM252.112 19.7273C252.112 20.2216 252.184 20.6577 252.329 21.0355C252.474 21.4105 252.686 21.7045 252.964 21.9176C253.243 22.1278 253.583 22.233 253.987 22.233C254.407 22.233 254.758 22.1222 255.039 21.9006C255.324 21.6761 255.537 21.375 255.679 20.9972C255.824 20.6165 255.896 20.1932 255.896 19.7273C255.896 19.267 255.825 18.8523 255.683 18.483C255.544 18.1108 255.332 17.8168 255.048 17.6009C254.767 17.3821 254.413 17.2727 253.987 17.2727C253.578 17.2727 253.234 17.3764 252.956 17.5838C252.677 17.7884 252.467 18.0753 252.325 18.4446C252.183 18.8111 252.112 19.2386 252.112 19.7273ZM258.853 25.4545C258.683 25.4545 258.531 25.4403 258.397 25.4119C258.264 25.3864 258.172 25.3608 258.12 25.3352L258.376 24.4489C258.62 24.5114 258.836 24.5341 259.024 24.517C259.211 24.5 259.377 24.4162 259.522 24.2656C259.67 24.1179 259.805 23.8778 259.927 23.5455L260.115 23.0341L257.694 16.4545H258.785L260.592 21.6705H260.66L262.467 16.4545H263.558L260.779 23.9545C260.654 24.2926 260.5 24.5724 260.315 24.794C260.13 25.0185 259.916 25.1847 259.672 25.2926C259.43 25.4006 259.157 25.4545 258.853 25.4545ZM268.397 23V14.2727H271.346C272.03 14.2727 272.59 14.3963 273.025 14.6435C273.462 14.8878 273.786 15.2188 273.996 15.6364C274.206 16.054 274.311 16.5199 274.311 17.0341C274.311 17.5483 274.206 18.0156 273.996 18.4361C273.789 18.8565 273.468 19.1918 273.033 19.4418C272.598 19.6889 272.042 19.8125 271.363 19.8125H269.249V18.875H271.328C271.797 18.875 272.174 18.794 272.458 18.6321C272.742 18.4702 272.948 18.2514 273.076 17.9759C273.206 17.6974 273.272 17.3835 273.272 17.0341C273.272 16.6847 273.206 16.3722 273.076 16.0966C272.948 15.821 272.74 15.6051 272.453 15.4489C272.167 15.2898 271.786 15.2102 271.311 15.2102H269.453V23H268.397ZM278.466 23.1364C277.875 23.1364 277.357 22.9957 276.911 22.7145C276.468 22.4332 276.121 22.0398 275.871 21.5341C275.624 21.0284 275.5 20.4375 275.5 19.7614C275.5 19.0795 275.624 18.4844 275.871 17.9759C276.121 17.4673 276.468 17.0724 276.911 16.7912C277.357 16.5099 277.875 16.3693 278.466 16.3693C279.057 16.3693 279.574 16.5099 280.017 16.7912C280.463 17.0724 280.81 17.4673 281.057 17.9759C281.307 18.4844 281.432 19.0795 281.432 19.7614C281.432 20.4375 281.307 21.0284 281.057 21.5341C280.81 22.0398 280.463 22.4332 280.017 22.7145C279.574 22.9957 279.057 23.1364 278.466 23.1364ZM278.466 22.233C278.915 22.233 279.284 22.1179 279.574 21.8878C279.864 21.6577 280.078 21.3551 280.218 20.9801C280.357 20.6051 280.426 20.1989 280.426 19.7614C280.426 19.3239 280.357 18.9162 280.218 18.5384C280.078 18.1605 279.864 17.8551 279.574 17.6222C279.284 17.3892 278.915 17.2727 278.466 17.2727C278.017 17.2727 277.648 17.3892 277.358 17.6222C277.069 17.8551 276.854 18.1605 276.715 18.5384C276.576 18.9162 276.506 19.3239 276.506 19.7614C276.506 20.1989 276.576 20.6051 276.715 20.9801C276.854 21.3551 277.069 21.6577 277.358 21.8878C277.648 22.1179 278.017 22.233 278.466 22.233ZM283.973 14.2727V23H282.967V14.2727H283.973ZM287.741 23.1534C287.326 23.1534 286.95 23.0753 286.612 22.919C286.274 22.7599 286.005 22.5312 285.806 22.233C285.608 21.9318 285.508 21.5682 285.508 21.142C285.508 20.767 285.582 20.4631 285.73 20.2301C285.877 19.9943 286.075 19.8097 286.322 19.6761C286.569 19.5426 286.842 19.4432 287.14 19.3778C287.441 19.3097 287.744 19.2557 288.048 19.2159C288.446 19.1648 288.768 19.1264 289.015 19.1009C289.265 19.0724 289.447 19.0256 289.561 18.9602C289.677 18.8949 289.735 18.7812 289.735 18.6193V18.5852C289.735 18.1648 289.62 17.8381 289.39 17.6051C289.163 17.3722 288.818 17.2557 288.355 17.2557C287.875 17.2557 287.498 17.3608 287.225 17.571C286.953 17.7812 286.761 18.0057 286.65 18.2443L285.696 17.9034C285.866 17.5057 286.093 17.196 286.377 16.9744C286.664 16.75 286.977 16.5937 287.315 16.5057C287.656 16.4148 287.991 16.3693 288.321 16.3693C288.531 16.3693 288.772 16.3949 289.045 16.446C289.321 16.4943 289.586 16.5952 289.842 16.7486C290.1 16.902 290.315 17.1335 290.485 17.4432C290.656 17.7528 290.741 18.1676 290.741 18.6875V23H289.735V22.1136H289.684C289.616 22.2557 289.502 22.4077 289.343 22.5696C289.184 22.7315 288.973 22.8693 288.708 22.983C288.444 23.0966 288.122 23.1534 287.741 23.1534ZM287.895 22.25C288.292 22.25 288.627 22.1719 288.9 22.0156C289.176 21.8594 289.383 21.6577 289.522 21.4105C289.664 21.1634 289.735 20.9034 289.735 20.6307V19.7102C289.693 19.7614 289.599 19.8082 289.454 19.8509C289.312 19.8906 289.147 19.9261 288.96 19.9574C288.775 19.9858 288.595 20.0114 288.419 20.0341C288.245 20.054 288.105 20.071 287.997 20.0852C287.735 20.1193 287.491 20.1747 287.264 20.2514C287.039 20.3253 286.858 20.4375 286.718 20.5881C286.582 20.7358 286.514 20.9375 286.514 21.1932C286.514 21.5426 286.643 21.8068 286.902 21.9858C287.163 22.1619 287.494 22.25 287.895 22.25ZM292.577 23V16.4545H293.548V17.4432H293.616C293.736 17.1193 293.952 16.8565 294.264 16.6548C294.577 16.4531 294.929 16.3523 295.321 16.3523C295.395 16.3523 295.487 16.3537 295.598 16.3565C295.709 16.3594 295.793 16.3636 295.849 16.3693V17.392C295.815 17.3835 295.737 17.3707 295.615 17.3537C295.496 17.3338 295.369 17.3239 295.236 17.3239C294.918 17.3239 294.634 17.3906 294.384 17.5241C294.136 17.6548 293.94 17.8366 293.795 18.0696C293.653 18.2997 293.582 18.5625 293.582 18.858V23H292.577Z" fill="#A1A5BB"/>
<rect width="655" height="147" transform="translate(0 38)" fill="#0C0C12"/>
<rect x="15" y="53" width="181" height="12" rx="6" fill="white" fill-opacity="0.1"/>
<rect x="15" y="74" width="533" height="12" rx="6" fill="white" fill-opacity="0.1"/>
<rect x="15" y="95" width="416" height="12" rx="6" fill="white" fill-opacity="0.1"/>
<g filter="url(#filter0_dd_3455_5477)">
<rect x="15" y="129" width="278.33" height="46" rx="11" fill="#1D1E27"/>
<rect x="15.5" y="129.5" width="277.33" height="45" rx="10.5" stroke="white" stroke-opacity="0.1"/>
<rect x="24" y="138" width="89" height="28" rx="6" fill="#0054DB"/>
<path d="M36.0387 157V147.545H41.9016V148.773H37.4652V151.654H41.4815V152.877H37.4652V157H36.0387ZM47.5926 154.059V149.909H48.9775V157H47.6203V155.772H47.5464C47.3833 156.151 47.1217 156.466 46.7616 156.718C46.4046 156.968 45.9599 157.092 45.4275 157.092C44.972 157.092 44.5688 156.992 44.218 156.792C43.8702 156.589 43.5963 156.289 43.3962 155.892C43.1992 155.495 43.1008 155.004 43.1008 154.419V149.909H44.4811V154.253C44.4811 154.736 44.615 155.121 44.8827 155.407C45.1505 155.694 45.4983 155.837 45.926 155.837C46.1846 155.837 46.4416 155.772 46.697 155.643C46.9555 155.513 47.1694 155.318 47.3387 155.056C47.511 154.795 47.5957 154.462 47.5926 154.059ZM52.2125 152.79V157H50.8322V149.909H52.1571V151.063H52.2449C52.408 150.688 52.6634 150.386 53.0112 150.158C53.362 149.931 53.8037 149.817 54.3361 149.817C54.8193 149.817 55.2425 149.918 55.6056 150.121C55.9688 150.321 56.2504 150.62 56.4505 151.017C56.6505 151.414 56.7505 151.905 56.7505 152.49V157H55.3702V152.656C55.3702 152.142 55.2363 151.74 54.9686 151.451C54.7008 151.159 54.333 151.012 53.8652 151.012C53.5452 151.012 53.2605 151.082 53.0112 151.22C52.765 151.359 52.5695 151.562 52.4249 151.83C52.2833 152.094 52.2125 152.414 52.2125 152.79ZM61.2562 157.138C60.6838 157.138 60.1729 156.992 59.7235 156.7C59.2773 156.404 58.9264 155.984 58.671 155.44C58.4186 154.892 58.2924 154.235 58.2924 153.468C58.2924 152.702 58.4202 152.047 58.6756 151.502C58.9341 150.957 59.2881 150.54 59.7374 150.251C60.1867 149.961 60.6961 149.817 61.2654 149.817C61.7056 149.817 62.0595 149.891 62.3272 150.038C62.5981 150.183 62.8074 150.352 62.9551 150.546C63.1059 150.74 63.2228 150.911 63.3059 151.059H63.389V147.545H64.7694V157H63.4213V155.897H63.3059C63.2228 156.047 63.1028 156.22 62.9458 156.414C62.792 156.608 62.5796 156.777 62.3088 156.922C62.0379 157.066 61.6871 157.138 61.2562 157.138ZM61.5609 155.961C61.9579 155.961 62.2934 155.857 62.5673 155.647C62.8443 155.435 63.0536 155.141 63.1951 154.766C63.3398 154.39 63.4121 153.953 63.4121 153.455C63.4121 152.962 63.3413 152.531 63.1998 152.162C63.0582 151.793 62.8504 151.505 62.5765 151.299C62.3026 151.092 61.9641 150.989 61.5609 150.989C61.1454 150.989 60.7992 151.097 60.5222 151.312C60.2452 151.528 60.0359 151.822 59.8944 152.194C59.7559 152.567 59.6866 152.987 59.6866 153.455C59.6866 153.929 59.7574 154.355 59.899 154.733C60.0405 155.112 60.2498 155.412 60.5268 155.634C60.8069 155.852 61.1516 155.961 61.5609 155.961ZM71.7172 147.545V157H70.2907V147.545H71.7172ZM78.9973 151.64L77.7463 151.862C77.694 151.702 77.6109 151.549 77.497 151.405C77.3862 151.26 77.2354 151.142 77.0446 151.049C76.8538 150.957 76.6152 150.911 76.329 150.911C75.9382 150.911 75.6119 150.999 75.3503 151.174C75.0887 151.346 74.9579 151.569 74.9579 151.843C74.9579 152.08 75.0456 152.271 75.2211 152.416C75.3965 152.56 75.6796 152.679 76.0705 152.771L77.1969 153.03C77.8494 153.181 78.3356 153.413 78.6557 153.727C78.9758 154.041 79.1358 154.449 79.1358 154.95C79.1358 155.375 79.0127 155.754 78.7665 156.086C78.5234 156.415 78.1833 156.674 77.7463 156.862C77.3123 157.049 76.8091 157.143 76.2367 157.143C75.4426 157.143 74.7948 156.974 74.2931 156.635C73.7915 156.294 73.4837 155.809 73.3699 155.181L74.704 154.978C74.7871 155.326 74.9579 155.589 75.2164 155.767C75.475 155.943 75.812 156.031 76.2275 156.031C76.6799 156.031 77.0415 155.937 77.3123 155.749C77.5832 155.558 77.7186 155.326 77.7186 155.052C77.7186 154.83 77.6355 154.644 77.4693 154.493C77.3062 154.342 77.0553 154.229 76.7168 154.152L75.5165 153.888C74.8548 153.738 74.3655 153.498 74.0485 153.168C73.7346 152.839 73.5776 152.422 73.5776 151.917C73.5776 151.499 73.6945 151.132 73.9284 150.819C74.1623 150.505 74.4855 150.26 74.8979 150.085C75.3103 149.906 75.7827 149.817 76.3152 149.817C77.0815 149.817 77.6847 149.983 78.1248 150.315C78.5649 150.645 78.8558 151.086 78.9973 151.64ZM85.9671 151.64L84.716 151.862C84.6637 151.702 84.5806 151.549 84.4667 151.405C84.3559 151.26 84.2051 151.142 84.0143 151.049C83.8235 150.957 83.585 150.911 83.2987 150.911C82.9079 150.911 82.5816 150.999 82.32 151.174C82.0584 151.346 81.9276 151.569 81.9276 151.843C81.9276 152.08 82.0154 152.271 82.1908 152.416C82.3662 152.56 82.6494 152.679 83.0402 152.771L84.1666 153.03C84.8191 153.181 85.3054 153.413 85.6254 153.727C85.9455 154.041 86.1056 154.449 86.1056 154.95C86.1056 155.375 85.9825 155.754 85.7362 156.086C85.4931 156.415 85.153 156.674 84.716 156.862C84.282 157.049 83.7789 157.143 83.2064 157.143C82.4124 157.143 81.7645 156.974 81.2629 156.635C80.7612 156.294 80.4535 155.809 80.3396 155.181L81.6737 154.978C81.7568 155.326 81.9276 155.589 82.1862 155.767C82.4447 155.943 82.7817 156.031 83.1972 156.031C83.6496 156.031 84.0112 155.937 84.282 155.749C84.5529 155.558 84.6883 155.326 84.6883 155.052C84.6883 154.83 84.6052 154.644 84.439 154.493C84.2759 154.342 84.0251 154.229 83.6865 154.152L82.4862 153.888C81.8245 153.738 81.3352 153.498 81.0182 153.168C80.7043 152.839 80.5473 152.422 80.5473 151.917C80.5473 151.499 80.6643 151.132 80.8982 150.819C81.1321 150.505 81.4552 150.26 81.8676 150.085C82.28 149.906 82.7525 149.817 83.2849 149.817C84.0512 149.817 84.6544 149.983 85.0945 150.315C85.5347 150.645 85.8255 151.086 85.9671 151.64ZM92.1151 154.059V149.909H93.5V157H92.1428V155.772H92.0689C91.9058 156.151 91.6442 156.466 91.2841 156.718C90.9271 156.968 90.4824 157.092 89.9499 157.092C89.4944 157.092 89.0913 156.992 88.7404 156.792C88.3926 156.589 88.1187 156.289 87.9187 155.892C87.7217 155.495 87.6232 155.004 87.6232 154.419V149.909H89.0036V154.253C89.0036 154.736 89.1374 155.121 89.4052 155.407C89.6729 155.694 90.0207 155.837 90.4485 155.837C90.707 155.837 90.964 155.772 91.2195 155.643C91.478 155.513 91.6919 155.318 91.8612 155.056C92.0335 154.795 92.1181 154.462 92.1151 154.059ZM98.4108 157.143C97.7122 157.143 97.1105 156.994 96.6057 156.695C96.1041 156.394 95.7163 155.971 95.4424 155.426C95.1715 154.878 95.0361 154.236 95.0361 153.501C95.0361 152.774 95.1715 152.134 95.4424 151.58C95.7163 151.026 96.0979 150.594 96.5873 150.283C97.0797 149.972 97.6552 149.817 98.3138 149.817C98.7139 149.817 99.1017 149.883 99.4772 150.015C99.8527 150.148 100.19 150.355 100.488 150.638C100.787 150.922 101.022 151.289 101.195 151.742C101.367 152.191 101.453 152.737 101.453 153.381V153.87H95.8163V152.836H100.1C100.1 152.473 100.027 152.151 99.8788 151.871C99.7311 151.588 99.5233 151.365 99.2556 151.202C98.9909 151.039 98.6801 150.957 98.3231 150.957C97.9353 150.957 97.5967 151.052 97.3074 151.243C97.0212 151.431 96.7996 151.677 96.6427 151.982C96.4888 152.283 96.4118 152.611 96.4118 152.965V153.773C96.4118 154.247 96.4949 154.65 96.6611 154.983C96.8304 155.315 97.0658 155.569 97.3675 155.744C97.6691 155.917 98.0215 156.003 98.4246 156.003C98.6862 156.003 98.9247 155.966 99.1402 155.892C99.3556 155.815 99.5418 155.701 99.6988 155.55C99.8557 155.4 99.9758 155.213 100.059 154.992L101.365 155.227C101.261 155.612 101.073 155.949 100.802 156.238C100.534 156.525 100.197 156.748 99.7911 156.908C99.3879 157.065 98.9278 157.143 98.4108 157.143Z" fill="white"/>
<path d="M127.827 158.432V146.614H128.584V158.432H127.827ZM130.195 150.279C130.146 149.842 129.943 149.504 129.586 149.263C129.229 149.02 128.78 148.899 128.238 148.899C127.85 148.899 127.515 148.96 127.232 149.083C126.948 149.203 126.728 149.37 126.571 149.582C126.417 149.791 126.341 150.03 126.341 150.298C126.341 150.522 126.393 150.716 126.498 150.879C126.605 151.042 126.745 151.179 126.918 151.29C127.093 151.398 127.281 151.489 127.481 151.562C127.681 151.633 127.873 151.692 128.058 151.738L128.981 151.978C129.283 152.052 129.592 152.152 129.909 152.278C130.226 152.404 130.52 152.57 130.791 152.777C131.062 152.983 131.28 153.238 131.446 153.543C131.616 153.848 131.7 154.212 131.7 154.637C131.7 155.173 131.562 155.648 131.285 156.064C131.011 156.479 130.612 156.807 130.089 157.047C129.569 157.287 128.94 157.407 128.201 157.407C127.493 157.407 126.881 157.295 126.364 157.07C125.847 156.845 125.442 156.527 125.15 156.114C124.857 155.699 124.696 155.206 124.665 154.637H126.096C126.124 154.979 126.234 155.263 126.428 155.491C126.625 155.716 126.876 155.884 127.181 155.994C127.489 156.102 127.826 156.156 128.192 156.156C128.595 156.156 128.953 156.093 129.267 155.967C129.584 155.837 129.834 155.659 130.015 155.431C130.197 155.2 130.288 154.931 130.288 154.623C130.288 154.343 130.208 154.114 130.048 153.935C129.891 153.757 129.677 153.609 129.406 153.492C129.138 153.375 128.835 153.272 128.496 153.183L127.379 152.878C126.622 152.672 126.022 152.369 125.579 151.969C125.139 151.569 124.919 151.039 124.919 150.381C124.919 149.836 125.066 149.36 125.362 148.954C125.657 148.548 126.057 148.232 126.562 148.008C127.067 147.78 127.636 147.666 128.27 147.666C128.91 147.666 129.475 147.779 129.964 148.003C130.457 148.228 130.845 148.537 131.128 148.931C131.411 149.322 131.559 149.771 131.571 150.279H130.195ZM133.276 157.25V156.216L136.475 152.901C136.816 152.541 137.098 152.226 137.32 151.955C137.544 151.681 137.712 151.421 137.823 151.175C137.934 150.929 137.989 150.667 137.989 150.39C137.989 150.076 137.915 149.805 137.767 149.577C137.62 149.347 137.418 149.17 137.163 149.047C136.907 148.92 136.62 148.857 136.299 148.857C135.961 148.857 135.665 148.926 135.413 149.065C135.161 149.203 134.967 149.399 134.831 149.651C134.696 149.904 134.628 150.199 134.628 150.538H133.266C133.266 149.962 133.399 149.459 133.663 149.028C133.928 148.597 134.291 148.263 134.753 148.026C135.215 147.786 135.739 147.666 136.327 147.666C136.921 147.666 137.444 147.785 137.897 148.022C138.352 148.256 138.708 148.576 138.963 148.982C139.219 149.385 139.346 149.841 139.346 150.348C139.346 150.699 139.28 151.042 139.148 151.378C139.019 151.713 138.792 152.087 138.469 152.5C138.146 152.909 137.697 153.406 137.121 153.991L135.242 155.957V156.027H139.499V157.25H133.276ZM144.369 157.379C143.79 157.379 143.27 157.268 142.809 157.047C142.35 156.822 141.984 156.514 141.71 156.124C141.436 155.733 141.29 155.286 141.271 154.785H142.656C142.69 155.191 142.87 155.525 143.196 155.787C143.523 156.048 143.914 156.179 144.369 156.179C144.732 156.179 145.054 156.096 145.334 155.93C145.617 155.76 145.839 155.528 145.999 155.233C146.162 154.937 146.243 154.6 146.243 154.222C146.243 153.837 146.16 153.494 145.994 153.192C145.828 152.891 145.599 152.654 145.306 152.481C145.017 152.309 144.685 152.221 144.309 152.218C144.023 152.218 143.735 152.267 143.446 152.366C143.156 152.464 142.923 152.594 142.744 152.754L141.438 152.56L141.968 147.795H147.167V149.019H143.155L142.855 151.664H142.91C143.095 151.486 143.34 151.336 143.644 151.216C143.952 151.096 144.281 151.036 144.632 151.036C145.208 151.036 145.72 151.173 146.169 151.447C146.622 151.721 146.977 152.095 147.236 152.569C147.497 153.04 147.627 153.581 147.624 154.194C147.627 154.806 147.488 155.353 147.208 155.833C146.931 156.313 146.546 156.691 146.054 156.968C145.565 157.242 145.003 157.379 144.369 157.379ZM152.601 157.407C151.872 157.404 151.249 157.212 150.732 156.83C150.215 156.448 149.819 155.893 149.545 155.163C149.271 154.434 149.134 153.555 149.134 152.527C149.134 151.502 149.271 150.627 149.545 149.901C149.822 149.174 150.219 148.62 150.736 148.239C151.256 147.857 151.878 147.666 152.601 147.666C153.325 147.666 153.945 147.859 154.462 148.243C154.979 148.625 155.374 149.179 155.648 149.905C155.925 150.628 156.064 151.502 156.064 152.527C156.064 153.558 155.927 154.439 155.653 155.168C155.379 155.894 154.983 156.45 154.466 156.835C153.949 157.216 153.328 157.407 152.601 157.407ZM152.601 156.174C153.242 156.174 153.742 155.862 154.102 155.237C154.465 154.612 154.646 153.709 154.646 152.527C154.646 151.743 154.563 151.079 154.397 150.538C154.234 149.993 153.999 149.58 153.691 149.3C153.386 149.017 153.023 148.876 152.601 148.876C151.964 148.876 151.464 149.19 151.101 149.817C150.738 150.445 150.555 151.349 150.552 152.527C150.552 153.315 150.633 153.982 150.796 154.526C150.963 155.068 151.198 155.479 151.503 155.759C151.807 156.036 152.174 156.174 152.601 156.174Z" fill="white"/>
<path opacity="0.5" d="M164.155 149.659V150.582H160.332V149.659H164.155ZM161.477 156.75V148.68C161.477 148.274 161.573 147.936 161.763 147.665C161.954 147.394 162.202 147.191 162.507 147.055C162.811 146.92 163.133 146.852 163.472 146.852C163.739 146.852 163.958 146.874 164.127 146.917C164.296 146.96 164.423 147 164.506 147.037L164.192 147.979C164.136 147.96 164.059 147.937 163.961 147.909C163.866 147.882 163.739 147.868 163.582 147.868C163.222 147.868 162.962 147.959 162.802 148.14C162.645 148.322 162.567 148.588 162.567 148.939V156.75H161.477ZM170.15 153.851V149.659H171.24V156.75H170.15V155.55H170.077C169.91 155.91 169.652 156.216 169.301 156.468C168.95 156.718 168.507 156.842 167.972 156.842C167.528 156.842 167.134 156.745 166.79 156.551C166.445 156.355 166.174 156.059 165.977 155.665C165.78 155.268 165.682 154.768 165.682 154.165V149.659H166.771V154.091C166.771 154.608 166.916 155.02 167.205 155.328C167.498 155.636 167.87 155.79 168.322 155.79C168.593 155.79 168.869 155.721 169.149 155.582C169.432 155.444 169.669 155.231 169.86 154.945C170.054 154.659 170.15 154.294 170.15 153.851ZM174.325 152.484V156.75H173.235V149.659H174.288V150.767H174.38C174.547 150.407 174.799 150.118 175.137 149.899C175.476 149.678 175.913 149.567 176.449 149.567C176.929 149.567 177.349 149.665 177.709 149.862C178.069 150.056 178.349 150.352 178.549 150.749C178.749 151.143 178.849 151.641 178.849 152.244V156.75H177.76V152.318C177.76 151.761 177.615 151.327 177.326 151.016C177.036 150.702 176.639 150.545 176.135 150.545C175.787 150.545 175.476 150.621 175.202 150.772C174.931 150.922 174.717 151.143 174.56 151.432C174.403 151.721 174.325 152.072 174.325 152.484ZM183.517 156.898C182.927 156.898 182.405 156.748 181.953 156.45C181.5 156.148 181.146 155.724 180.891 155.176C180.635 154.625 180.508 153.974 180.508 153.223C180.508 152.478 180.635 151.832 180.891 151.284C181.146 150.736 181.502 150.313 181.957 150.015C182.413 149.716 182.939 149.567 183.536 149.567C183.998 149.567 184.362 149.644 184.63 149.798C184.901 149.948 185.107 150.121 185.249 150.315C185.393 150.505 185.506 150.662 185.586 150.786H185.678V147.295H186.767V156.75H185.715V155.661H185.586C185.506 155.79 185.392 155.953 185.244 156.15C185.096 156.344 184.886 156.518 184.612 156.672C184.338 156.822 183.973 156.898 183.517 156.898ZM183.665 155.919C184.102 155.919 184.472 155.805 184.773 155.577C185.075 155.347 185.304 155.028 185.461 154.622C185.618 154.212 185.696 153.74 185.696 153.205C185.696 152.675 185.62 152.212 185.466 151.815C185.312 151.415 185.084 151.104 184.782 150.882C184.481 150.658 184.108 150.545 183.665 150.545C183.204 150.545 182.819 150.664 182.511 150.901C182.206 151.135 181.977 151.453 181.823 151.857C181.672 152.257 181.597 152.706 181.597 153.205C181.597 153.709 181.674 154.168 181.828 154.58C181.985 154.99 182.216 155.316 182.52 155.559C182.828 155.799 183.21 155.919 183.665 155.919ZM191.887 156.898C191.204 156.898 190.615 156.747 190.119 156.445C189.627 156.141 189.247 155.716 188.979 155.171C188.714 154.623 188.582 153.986 188.582 153.26C188.582 152.534 188.714 151.893 188.979 151.339C189.247 150.782 189.619 150.348 190.096 150.038C190.576 149.724 191.136 149.567 191.776 149.567C192.146 149.567 192.51 149.628 192.87 149.751C193.231 149.875 193.558 150.075 193.854 150.352C194.149 150.625 194.385 150.989 194.56 151.441C194.736 151.893 194.823 152.451 194.823 153.112V153.574H189.357V152.632H193.715C193.715 152.232 193.635 151.875 193.475 151.561C193.318 151.247 193.094 150.999 192.801 150.818C192.512 150.636 192.17 150.545 191.776 150.545C191.342 150.545 190.967 150.653 190.65 150.869C190.336 151.081 190.094 151.358 189.925 151.7C189.756 152.041 189.671 152.407 189.671 152.798V153.426C189.671 153.962 189.764 154.416 189.948 154.788C190.136 155.157 190.396 155.439 190.728 155.633C191.061 155.824 191.447 155.919 191.887 155.919C192.173 155.919 192.432 155.879 192.663 155.799C192.897 155.716 193.098 155.593 193.267 155.43C193.437 155.263 193.568 155.057 193.66 154.811L194.712 155.107C194.602 155.464 194.415 155.777 194.154 156.048C193.892 156.316 193.569 156.525 193.184 156.676C192.8 156.824 192.367 156.898 191.887 156.898ZM199.158 156.898C198.567 156.898 198.046 156.748 197.593 156.45C197.141 156.148 196.787 155.724 196.531 155.176C196.276 154.625 196.148 153.974 196.148 153.223C196.148 152.478 196.276 151.832 196.531 151.284C196.787 150.736 197.142 150.313 197.598 150.015C198.053 149.716 198.58 149.567 199.177 149.567C199.638 149.567 200.003 149.644 200.271 149.798C200.542 149.948 200.748 150.121 200.889 150.315C201.034 150.505 201.146 150.662 201.226 150.786H201.319V147.295H202.408V156.75H201.356V155.661H201.226C201.146 155.79 201.032 155.953 200.885 156.15C200.737 156.344 200.526 156.518 200.252 156.672C199.978 156.822 199.614 156.898 199.158 156.898ZM199.306 155.919C199.743 155.919 200.112 155.805 200.414 155.577C200.715 155.347 200.945 155.028 201.102 154.622C201.259 154.212 201.337 153.74 201.337 153.205C201.337 152.675 201.26 152.212 201.106 151.815C200.952 151.415 200.725 151.104 200.423 150.882C200.121 150.658 199.749 150.545 199.306 150.545C198.844 150.545 198.459 150.664 198.152 150.901C197.847 151.135 197.618 151.453 197.464 151.857C197.313 152.257 197.238 152.706 197.238 153.205C197.238 153.709 197.315 154.168 197.468 154.58C197.625 154.99 197.856 155.316 198.161 155.559C198.469 155.799 198.85 155.919 199.306 155.919Z" fill="white"/>
<rect width="1" height="46" transform="translate(215 129)" fill="white" fill-opacity="0.1"/>
<path d="M249.434 157.36V146.551H253.742C254.308 146.551 254.823 146.695 255.286 146.983C255.749 147.261 256.115 147.647 256.383 148.142C256.66 148.636 256.799 149.186 256.799 149.794C256.799 150.422 256.66 150.988 256.383 151.492C256.115 151.997 255.749 152.398 255.286 152.697C254.823 152.996 254.308 153.145 253.742 153.145H250.777V157.36H249.434ZM250.777 151.832H253.773C254.082 151.832 254.36 151.745 254.607 151.57C254.854 151.384 255.049 151.137 255.193 150.828C255.338 150.52 255.41 150.175 255.41 149.794C255.41 149.423 255.338 149.094 255.193 148.806C255.049 148.517 254.854 148.286 254.607 148.111C254.36 147.936 254.082 147.848 253.773 147.848H250.777V151.832Z" fill="white"/>
<path d="M261.775 157.515C260.982 157.515 260.272 157.335 259.644 156.974C259.026 156.604 258.537 156.104 258.177 155.477C257.817 154.838 257.637 154.112 257.637 153.299C257.637 152.486 257.817 151.765 258.177 151.137C258.537 150.509 259.026 150.015 259.644 149.655C260.272 149.295 260.982 149.114 261.775 149.114C262.568 149.114 263.273 149.295 263.891 149.655C264.519 150.015 265.008 150.509 265.358 151.137C265.718 151.765 265.898 152.486 265.898 153.299C265.898 154.112 265.718 154.838 265.358 155.477C265.008 156.104 264.519 156.604 263.891 156.974C263.273 157.335 262.568 157.515 261.775 157.515ZM261.775 156.31C262.321 156.31 262.805 156.182 263.227 155.924C263.649 155.657 263.978 155.296 264.215 154.843C264.462 154.39 264.58 153.876 264.57 153.299C264.58 152.723 264.462 152.213 264.215 151.77C263.978 151.317 263.649 150.962 263.227 150.705C262.805 150.448 262.321 150.319 261.775 150.319C261.229 150.319 260.74 150.448 260.308 150.705C259.886 150.962 259.557 151.317 259.32 151.77C259.083 152.223 258.965 152.733 258.965 153.299C258.965 153.876 259.083 154.39 259.32 154.843C259.557 155.296 259.886 155.657 260.308 155.924C260.74 156.182 261.229 156.31 261.775 156.31Z" fill="white"/>
<path d="M267.309 157.36V145.933H268.606V157.36H267.309Z" fill="white"/>
<path d="M273.724 157.515C273.034 157.515 272.406 157.335 271.84 156.974C271.284 156.604 270.841 156.099 270.512 155.461C270.182 154.823 270.018 154.102 270.018 153.299C270.018 152.486 270.187 151.765 270.527 151.137C270.867 150.509 271.32 150.015 271.886 149.655C272.463 149.295 273.106 149.114 273.816 149.114C274.238 149.114 274.624 149.176 274.974 149.3C275.335 149.423 275.654 149.598 275.932 149.825C276.21 150.041 276.441 150.298 276.627 150.597C276.812 150.885 276.936 151.194 276.997 151.523L276.658 151.369L276.673 149.284H277.97V157.36H276.673V155.399L276.997 155.229C276.925 155.528 276.786 155.816 276.58 156.094C276.385 156.372 276.138 156.619 275.839 156.835C275.551 157.041 275.227 157.206 274.866 157.33C274.506 157.453 274.125 157.515 273.724 157.515ZM274.033 156.295C274.558 156.295 275.021 156.166 275.422 155.909C275.824 155.652 276.143 155.302 276.38 154.859C276.616 154.406 276.735 153.886 276.735 153.299C276.735 152.723 276.616 152.213 276.38 151.77C276.153 151.328 275.834 150.978 275.422 150.72C275.021 150.463 274.558 150.334 274.033 150.334C273.507 150.334 273.044 150.463 272.643 150.72C272.241 150.978 271.922 151.328 271.685 151.77C271.459 152.213 271.346 152.723 271.346 153.299C271.346 153.876 271.459 154.39 271.685 154.843C271.922 155.296 272.241 155.652 272.643 155.909C273.044 156.166 273.507 156.295 274.033 156.295Z" fill="white"/>
<path d="M279.637 157.36V149.284H280.934L280.965 151.554L280.826 151.168C280.939 150.787 281.124 150.442 281.382 150.134C281.639 149.825 281.943 149.578 282.293 149.392C282.653 149.207 283.034 149.114 283.436 149.114C283.611 149.114 283.775 149.13 283.93 149.161C284.094 149.181 284.228 149.212 284.331 149.253L283.976 150.689C283.842 150.628 283.703 150.581 283.559 150.551C283.415 150.52 283.281 150.504 283.158 150.504C282.828 150.504 282.524 150.566 282.247 150.689C281.979 150.813 281.747 150.983 281.552 151.199C281.366 151.405 281.217 151.647 281.104 151.925C281.001 152.203 280.949 152.501 280.949 152.82V157.36H279.637Z" fill="white"/>
<path fill-rule="evenodd" clip-rule="evenodd" d="M230.596 158.775C234.337 161.308 239.424 160.328 241.957 156.586C244.489 152.844 243.509 147.758 239.768 145.225C236.026 142.692 230.94 143.672 228.407 147.414C225.874 151.156 226.854 156.242 230.596 158.775ZM231.68 158.841C235.103 160.592 239.444 158.949 241.378 155.17C243.311 151.392 242.103 146.909 238.681 145.158C235.258 143.407 230.916 145.05 228.983 148.829C227.05 152.608 228.257 157.09 231.68 158.841Z" fill="white"/>
<path fill-rule="evenodd" clip-rule="evenodd" d="M232.638 159.735C235.728 160.741 239.362 158.084 240.756 153.802C242.15 149.519 240.775 145.232 237.686 144.227C234.596 143.221 230.962 145.878 229.568 150.16C228.174 154.443 229.549 158.73 232.638 159.735ZM233.584 159.41C236.199 159.968 239.026 157.102 239.899 153.01C240.772 148.917 239.36 145.147 236.745 144.59C234.131 144.032 231.303 146.897 230.431 150.99C229.558 155.082 230.97 158.852 233.584 159.41Z" fill="white"/>
<path fill-rule="evenodd" clip-rule="evenodd" d="M234.317 160.085C236.385 160.306 238.448 156.858 238.925 152.383C239.403 147.909 238.115 144.103 236.047 143.883C233.98 143.662 231.917 147.11 231.439 151.584C230.962 156.058 232.25 159.864 234.317 160.085ZM235.286 158.723C236.782 158.699 237.947 155.671 237.889 151.959C237.83 148.246 236.57 145.256 235.074 145.28C233.578 145.303 232.412 148.332 232.471 152.044C232.53 155.756 233.79 158.747 235.286 158.723Z" fill="white"/>
</g>
</g>
<defs>
<filter id="filter0_dd_3455_5477" x="7" y="122" width="294.328" height="62" filterUnits="userSpaceOnUse" color-interpolation-filters="sRGB">
<feFlood flood-opacity="0" result="BackgroundImageFix"/>
<feColorMatrix in="SourceAlpha" type="matrix" values="0 0 0 0 0 0 0 0 0 0 0 0 0 0 0 0 0 0 127 0" result="hardAlpha"/>
<feOffset dy="0.5"/>
<feGaussianBlur stdDeviation="1.25"/>
<feComposite in2="hardAlpha" operator="out"/>
<feColorMatrix type="matrix" values="0 0 0 0 0 0 0 0 0 0 0 0 0 0 0 0 0 0 0.2 0"/>
<feBlend mode="normal" in2="BackgroundImageFix" result="effect1_dropShadow_3455_5477"/>
<feColorMatrix in="SourceAlpha" type="matrix" values="0 0 0 0 0 0 0 0 0 0 0 0 0 0 0 0 0 0 127 0" result="hardAlpha"/>
<feOffset dy="1"/>
<feGaussianBlur stdDeviation="4"/>
<feComposite in2="hardAlpha" operator="out"/>
<feColorMatrix type="matrix" values="0 0 0 0 0 0 0 0 0 0 0 0 0 0 0 0 0 0 0.07 0"/>
<feBlend mode="normal" in2="effect1_dropShadow_3455_5477" result="effect2_dropShadow_3455_5477"/>
<feBlend mode="normal" in="SourceGraphic" in2="effect2_dropShadow_3455_5477" result="shape"/>
</filter>
<clipPath id="clip0_3455_5477">
<rect width="634" height="185" rx="16" fill="white"/>
</clipPath>
</defs>
</svg>
