<svg width="122" height="37" viewBox="0 0 122 37" fill="none" xmlns="http://www.w3.org/2000/svg">
<g clip-path="url(#clip0_296_139)">
<path d="M104.953 36.286C100.733 37.92 99.017 36.372 99.017 35.395C100.512 35.269 104.084 35.064 104.953 36.286ZM110.309 34.95C109.261 35.7202 107.974 36.093 106.676 36.0019C105.379 35.9109 104.156 35.3619 103.226 34.453C104.666 34.053 108.598 33.579 110.309 34.95ZM103.17 31.774C103.33 33.807 101.248 34.95 99 35.115C99.41 33.07 101.509 32.157 103.17 31.774ZM107.202 29.9C107.44 30.769 107.113 33.128 103.879 34.064C104.018 32.471 104.865 30.397 107.202 29.9ZM113.615 32.265C112.786 33.0923 111.693 33.6025 110.526 33.7069C109.359 33.8112 108.193 33.503 107.23 32.836C108.526 32.168 111.638 31.266 113.615 32.265ZM110.198 27.559C110.641 28.415 110.735 30.854 107.872 32.322C107.706 30.752 108.337 28.067 110.198 27.559ZM117.281 28.507C117.011 29.0373 116.637 29.5073 116.18 29.8884C115.723 30.2695 115.194 30.5538 114.624 30.724C114.059 30.8898 113.466 30.9363 112.883 30.8605C112.299 30.7848 111.738 30.5884 111.234 30.284C113.039 28.587 115.919 27.936 117.281 28.507ZM113.001 23.96C114.285 26.2 112.928 28.758 111.516 29.809C110.888 27.727 111.465 25.458 113.001 23.96ZM119.663 23.863C119.818 27.342 116.185 27.153 114.479 27.176C115.016 26.445 118.001 23.795 119.663 23.863ZM115.183 20.613C115.858 21.356 116.871 24.212 114.628 26.542C113.925 24.857 113.771 22.27 115.183 20.613ZM121.568 19.071C121.684 21.881 119.319 23.303 117.038 23.281C117.724 21.927 119.558 19.317 121.568 19.071ZM116.783 17.135C118.295 18.025 118.123 20.899 117.231 22.395C116.229 21.002 115.481 19.271 116.783 17.135ZM121.667 14.502C122.415 17.061 120.217 18.792 118.898 18.94C119.236 17.718 119.678 15.553 121.667 14.502ZM117.06 13.651C118.727 14.486 119.517 16.483 118.893 18.283C117.73 17.346 116.329 15.364 117.06 13.651ZM121.745 10.555C122.775 13.668 120.41 14.685 119.53 14.935C119.635 13.611 120.477 10.972 121.745 10.555ZM117.126 9.738C117.802 9.933 119.729 11.515 119.38 14.348C118.112 13.634 116.572 12.274 117.126 9.738ZM121.047 5.838C122.199 9.664 120.277 11.235 119.646 11.548C119.546 10.338 119.424 7.511 121.047 5.838ZM116.783 5.934C117.99 6.271 119.513 8.487 119.441 10.618C118.245 10.07 116.456 7.791 116.783 5.934ZM117.143 0C119.945 2.896 120.338 5.18 119.519 7.996C118.25 6.854 117.237 3.427 117.143 0ZM17.047 36.286C21.267 37.92 22.983 36.372 22.983 35.395C21.488 35.269 17.916 35.064 17.047 36.286ZM11.69 34.95C12.738 35.7202 14.0254 36.093 15.3228 36.0019C16.6201 35.9109 17.8429 35.3619 18.773 34.453C17.333 34.053 13.401 33.579 11.69 34.95ZM18.829 31.774C18.669 33.807 20.751 34.95 22.999 35.115C22.589 33.07 20.49 32.157 18.829 31.774ZM14.798 29.9C14.56 30.769 14.887 33.128 18.121 34.064C17.982 32.471 17.135 30.397 14.798 29.9ZM8.38501 32.265C9.21426 33.0923 10.3074 33.6025 11.4741 33.7069C12.6408 33.8112 13.8071 33.503 14.77 32.836C13.474 32.168 10.362 31.266 8.38501 32.265ZM11.802 27.559C11.359 28.415 11.265 30.854 14.128 32.322C14.294 30.752 13.663 28.067 11.802 27.559ZM4.71901 28.507C4.98853 29.0373 5.36304 29.5073 5.81979 29.8884C6.27655 30.2695 6.80601 30.5538 7.37601 30.724C7.94069 30.8898 8.53367 30.9363 9.11728 30.8605C9.70089 30.7848 10.2624 30.5884 10.766 30.284C8.96101 28.587 6.08101 27.936 4.71901 28.507ZM8.99901 23.96C7.71501 26.2 9.07201 28.758 10.484 29.809C11.112 27.727 10.536 25.458 9.00001 23.96H8.99901ZM2.33701 23.863C2.18201 27.342 5.81501 27.153 7.52101 27.176C6.98401 26.445 3.99901 23.795 2.33701 23.863ZM6.81701 20.613C6.14201 21.356 5.12901 24.212 7.37201 26.542C8.07501 24.857 8.22901 22.27 6.81701 20.613ZM0.433011 19.071C0.317011 21.881 2.68201 23.303 4.96301 23.281C4.27701 21.927 2.44301 19.317 0.433011 19.071ZM5.21801 17.135C3.70601 18.025 3.87801 20.899 4.77001 22.395C5.77201 21.002 6.52001 19.271 5.21801 17.135ZM0.333011 14.502C-0.414989 17.061 1.78301 18.792 3.10201 18.94C2.76401 17.718 2.32101 15.553 0.332011 14.502H0.333011ZM4.94001 13.651C3.27301 14.486 2.48301 16.483 3.10701 18.283C4.27001 17.346 5.67101 15.364 4.94001 13.651ZM0.255011 10.555C-0.774989 13.668 1.59001 14.685 2.47001 14.935C2.36501 13.611 1.52301 10.972 0.255011 10.555ZM4.87401 9.738C4.19801 9.933 2.27101 11.515 2.62001 14.348C3.88801 13.634 5.42801 12.274 4.87401 9.738ZM0.953011 5.838C-0.198989 9.664 1.72301 11.235 2.35401 11.548C2.45401 10.338 2.57601 7.511 0.953011 5.838ZM5.21701 5.934C4.01001 6.271 2.48701 8.487 2.55901 10.618C3.75501 10.07 5.54401 7.791 5.21701 5.934ZM4.85701 0C2.05501 2.896 1.66201 5.18 2.48101 7.996C3.75001 6.854 4.76301 3.427 4.85701 0ZM55.834 35C55.996 35 56.122 34.892 56.122 34.73V22.67C56.122 22.508 55.996 22.4 55.834 22.4H51.244C51.082 22.4 50.974 22.508 50.974 22.67V24.452C50.974 24.614 51.082 24.74 51.244 24.74H53.368V34.73C53.368 34.892 53.476 35 53.638 35H55.834ZM61.27 35.216C63.052 35.216 64.618 34.28 64.636 32.462C64.672 31.13 63.79 30.356 62.692 29.924L61.36 29.402C60.964 29.24 60.658 29.006 60.658 28.682C60.658 28.412 60.82 28.106 61.36 28.106C61.846 28.106 62.332 28.358 62.908 28.808C63.07 28.916 63.196 28.934 63.322 28.808L64.24 27.728C64.312 27.62 64.366 27.476 64.258 27.35C63.8821 26.9118 63.4152 26.5609 62.8899 26.3215C62.3645 26.0821 61.7933 25.9601 61.216 25.964C59.524 25.964 58.048 26.954 58.048 28.682C58.048 29.906 58.804 30.662 59.956 31.112L61.108 31.58C61.702 31.814 61.9 32.012 61.9 32.354C61.9 32.75 61.576 32.93 61.09 32.93C60.46 32.93 59.866 32.66 59.092 32.102C58.948 32.012 58.786 31.958 58.642 32.192L57.922 33.2C57.796 33.38 57.778 33.596 57.868 33.722C58.606 34.604 59.776 35.216 61.27 35.216ZM69.604 35.216C70.216 35.216 71.188 35.108 71.188 34.658V33.164C71.188 32.984 71.044 32.894 70.864 32.912C70.63 32.93 70.468 32.93 70.306 32.93C69.856 32.93 69.55 32.678 69.55 32.192V28.304H70.9C71.062 28.304 71.17 28.196 71.17 28.034V26.45C71.17 26.288 71.062 26.18 70.9 26.18H69.55V24.11C69.55 23.948 69.424 23.84 69.262 23.84H67.048C66.886 23.84 66.76 23.948 66.76 24.11V26.18H65.662C65.5 26.18 65.392 26.288 65.392 26.45V28.034C65.392 28.196 65.5 28.304 65.662 28.304H66.76V32.498C66.76 34.55 68.146 35.216 69.604 35.216ZM20.72 15C20.81 15 20.87 14.94 20.87 14.85V12.59H21.59C23.28 12.59 24.08 11.66 24.08 10.3C24.08 8.94 23.28 8 21.59 8H19.44C19.35 8 19.29 8.06 19.29 8.15V14.85C19.29 14.94 19.35 15 19.44 15H20.72ZM20.87 9.4H21.55C22.08 9.4 22.57 9.57 22.57 10.3C22.57 11.02 22.08 11.19 21.55 11.19H20.87V9.4ZM26.37 15C26.46 15 26.53 14.94 26.53 14.85V12.49C26.53 11.76 26.91 11.36 27.54 11.36C27.69 11.36 27.8 11.38 27.9 11.41C28.04 11.44 28.11 11.41 28.11 11.28V10.31C28.11 10.22 28.09 10.16 28.02 10.11C27.94 10.05 27.81 9.98 27.57 9.98C27 9.98 26.69 10.38 26.53 10.91L26.48 10.26C26.48 10.14 26.42 10.1 26.33 10.1H25.15C25.06 10.1 25 10.16 25 10.25V14.85C25 14.94 25.06 15 25.15 15H26.37ZM31.14 15.12C32.62 15.12 33.72 14 33.72 12.55C33.72 11.1 32.62 9.98 31.14 9.98C29.66 9.98 28.57 11.1 28.57 12.55C28.57 14 29.66 15.12 31.14 15.12ZM31.14 13.72C30.52 13.72 30.04 13.27 30.04 12.55C30.04 11.83 30.52 11.38 31.14 11.38C31.76 11.38 32.24 11.83 32.24 12.55C32.24 13.27 31.76 13.72 31.14 13.72ZM36.63 15.12C37.33 15.12 37.83 14.84 38.16 14.37L38.18 14.85C38.18 14.94 38.25 15 38.34 15H39.44C39.53 15 39.61 14.94 39.61 14.85V8C39.61 7.91 39.54 7.85 39.45 7.85H38.22C38.13 7.85 38.07 7.91 38.07 8V10.59C37.74 10.2 37.27 9.98 36.63 9.98C35.27 9.98 34.33 11.1 34.33 12.55C34.33 14.01 35.27 15.12 36.63 15.12ZM36.96 13.73C36.31 13.73 35.82 13.27 35.82 12.55C35.82 11.84 36.31 11.37 36.96 11.37C37.63 11.37 38.09 11.84 38.09 12.54C38.09 13.26 37.63 13.73 36.96 13.73ZM42.48 15.12C43.19 15.12 43.64 14.77 43.92 14.27L43.96 14.84C43.96 14.96 44.03 15 44.12 15H45.29C45.38 15 45.45 14.94 45.45 14.85V10.25C45.45 10.16 45.38 10.1 45.29 10.1H44.08C43.99 10.1 43.92 10.16 43.92 10.25V12.73C43.92 13.38 43.59 13.72 43.07 13.72C42.53 13.72 42.25 13.38 42.25 12.73V10.25C42.25 10.16 42.18 10.1 42.09 10.1H40.87C40.78 10.1 40.72 10.16 40.72 10.25V13.09C40.72 14.37 41.46 15.12 42.48 15.12ZM48.92 15.12C49.71 15.12 50.37 14.77 50.79 14.22C50.85 14.15 50.84 14.07 50.78 14.01L50.09 13.35C50.01 13.27 49.9 13.27 49.83 13.34C49.56 13.59 49.3 13.72 48.97 13.72C48.23 13.72 47.79 13.16 47.79 12.52C47.79 11.89 48.23 11.38 48.95 11.38C49.29 11.38 49.55 11.5 49.81 11.76C49.89 11.83 50 11.83 50.08 11.75L50.77 11.09C50.83 11.03 50.84 10.94 50.78 10.88C50.36 10.33 49.7 9.98 48.88 9.98C47.4 9.98 46.32 11.08 46.32 12.52C46.32 13.99 47.42 15.12 48.92 15.12ZM53.69 15.12C54.03 15.12 54.57 15.06 54.57 14.81V13.98C54.57 13.88 54.49 13.83 54.39 13.84C54.26 13.85 54.17 13.85 54.08 13.85C53.83 13.85 53.66 13.71 53.66 13.44V11.28H54.41C54.5 11.28 54.56 11.22 54.56 11.13V10.25C54.56 10.16 54.5 10.1 54.41 10.1H53.66V8.95C53.66 8.86 53.59 8.8 53.5 8.8H52.27C52.18 8.8 52.11 8.86 52.11 8.95V10.1H51.5C51.41 10.1 51.35 10.16 51.35 10.25V11.13C51.35 11.22 51.41 11.28 51.5 11.28H52.11V13.61C52.11 14.75 52.88 15.12 53.69 15.12ZM59.64 15.12C61.12 15.12 62.22 14 62.22 12.55C62.22 11.1 61.12 9.98 59.64 9.98C58.16 9.98 57.07 11.1 57.07 12.55C57.07 14 58.16 15.12 59.64 15.12ZM59.64 13.72C59.02 13.72 58.54 13.27 58.54 12.55C58.54 11.83 59.02 11.38 59.64 11.38C60.26 11.38 60.74 11.83 60.74 12.55C60.74 13.27 60.26 13.72 59.64 13.72ZM64.79 15C64.88 15 64.95 14.94 64.95 14.85V11.28H65.93C66.02 11.28 66.08 11.22 66.08 11.13V10.25C66.08 10.16 66.02 10.1 65.93 10.1H64.95V9.61C64.95 9.28 65.06 9.04 65.53 9.04C65.64 9.04 65.78 9.07 65.95 9.1C66.02 9.11 66.08 9.1 66.08 9.03V8.02C66.08 7.96 66.05 7.89 65.99 7.86C65.69 7.71 65.47 7.69 65.17 7.69C64.08 7.69 63.41 8.21 63.41 9.41V10.1H62.83C62.74 10.1 62.68 10.16 62.68 10.25V11.13C62.68 11.22 62.74 11.28 62.83 11.28H63.41V14.85C63.41 14.94 63.47 15 63.56 15H64.79ZM70.87 15.12C71.21 15.12 71.75 15.06 71.75 14.81V13.98C71.75 13.88 71.67 13.83 71.57 13.84C71.44 13.85 71.35 13.85 71.26 13.85C71.01 13.85 70.84 13.71 70.84 13.44V11.28H71.59C71.68 11.28 71.74 11.22 71.74 11.13V10.25C71.74 10.16 71.68 10.1 71.59 10.1H70.84V8.95C70.84 8.86 70.77 8.8 70.68 8.8H69.45C69.36 8.8 69.29 8.86 69.29 8.95V10.1H68.68C68.59 10.1 68.53 10.16 68.53 10.25V11.13C68.53 11.22 68.59 11.28 68.68 11.28H69.29V13.61C69.29 14.75 70.06 15.12 70.87 15.12ZM75.52 9.98C74.82 9.98 74.37 10.33 74.09 10.83V8C74.09 7.91 74.02 7.85 73.93 7.85H72.71C72.62 7.85 72.56 7.91 72.56 8V14.85C72.56 14.94 72.62 15 72.71 15H73.93C74.02 15 74.09 14.94 74.09 14.85V12.37C74.09 11.72 74.41 11.38 74.94 11.38C75.48 11.38 75.76 11.72 75.76 12.37V14.85C75.76 14.94 75.83 15 75.92 15H77.13C77.22 15 77.29 14.94 77.29 14.85V12.01C77.29 10.73 76.54 9.98 75.52 9.98ZM80.86 15.12C81.55 15.12 82.18 14.92 82.6 14.5C82.69 14.42 82.69 14.34 82.65 14.28L82.24 13.7C82.18 13.63 82.14 13.61 82.06 13.65C81.65 13.88 81.31 13.92 80.98 13.92C80.28 13.92 79.82 13.66 79.65 13.13H82.47C82.92 13.13 83.05 12.83 83.05 12.33C83.05 11.07 82.18 9.98 80.68 9.98C79.17 9.98 78.16 11.09 78.16 12.53C78.16 14.02 79.25 15.12 80.86 15.12ZM79.63 12.07C79.75 11.49 80.18 11.24 80.69 11.24C81.2 11.24 81.59 11.48 81.69 12.07H79.63ZM87.9 15.12C88.6 15.12 89.1 14.84 89.43 14.37L89.45 14.85C89.45 14.94 89.52 15 89.61 15H90.71C90.8 15 90.88 14.94 90.88 14.85V8C90.88 7.91 90.81 7.85 90.72 7.85H89.49C89.4 7.85 89.34 7.91 89.34 8V10.59C89.01 10.2 88.54 9.98 87.9 9.98C86.54 9.98 85.6 11.1 85.6 12.55C85.6 14.01 86.54 15.12 87.9 15.12ZM88.23 13.73C87.58 13.73 87.09 13.27 87.09 12.55C87.09 11.84 87.58 11.37 88.23 11.37C88.9 11.37 89.36 11.84 89.36 12.54C89.36 13.26 88.9 13.73 88.23 13.73ZM94.04 15.12C94.74 15.12 95.24 14.84 95.57 14.37L95.59 14.85C95.59 14.94 95.66 15 95.75 15H96.85C96.94 15 97.02 14.94 97.02 14.85V10.25C97.02 10.16 96.95 10.1 96.86 10.1H95.75C95.66 10.1 95.59 10.16 95.59 10.25L95.57 10.72C95.25 10.26 94.76 9.98 94.04 9.98C92.68 9.98 91.74 11.1 91.74 12.55C91.74 14.01 92.68 15.12 94.04 15.12ZM94.37 13.73C93.72 13.73 93.23 13.27 93.23 12.55C93.23 11.84 93.72 11.37 94.37 11.37C95.04 11.37 95.5 11.84 95.5 12.54C95.5 13.26 95.04 13.73 94.37 13.73ZM100.33 16.9C100.41 16.9 100.48 16.86 100.51 16.78L103.11 10.27C103.15 10.16 103.09 10.1 102.98 10.1H101.74C101.66 10.1 101.58 10.14 101.55 10.22L100.47 13.22L99.39 10.22C99.36 10.14 99.28 10.1 99.2 10.1H97.96C97.85 10.1 97.79 10.16 97.83 10.27L99.73 15.01L99.01 16.72C98.96 16.84 99.02 16.9 99.14 16.9H100.33Z" fill="white"/>
</g>
<defs>
<clipPath id="clip0_296_139">
<rect width="122" height="37" fill="white"/>
</clipPath>
</defs>
</svg>
